<?xml version="1.0" encoding="utf-8"?>
<!-- Generator: Adobe Illustrator 22.1.0, SVG Export Plug-In . SVG Version: 6.00 Build 0)  -->
<svg version="1.1" id="Layer_1" xmlns="http://www.w3.org/2000/svg" xmlns:xlink="http://www.w3.org/1999/xlink" x="0px" y="0px"
	 viewBox="0 0 800 400" style="enable-background:new 0 0 800 400;" xml:space="preserve">
<style type="text/css">
	.st0{fill:url(#SVGID_1_);}
	.st1{enable-background:new    ;}
	.st2{fill:#E6F0FF;}
	.st3{fill:#D7E7FF;}
	.st4{opacity:0.5;fill:#E6F0FF;enable-background:new    ;}
	.st5{opacity:0.1;fill:#E6F0FF;enable-background:new    ;}
	.st6{opacity:0.25;fill:#E6F0FF;enable-background:new    ;}
</style>
<title>sagesans</title>
<radialGradient id="SVGID_1_" cx="400" cy="202" r="316.2278" gradientTransform="matrix(1 0 0 -1 0 402)" gradientUnits="userSpaceOnUse">
	<stop  offset="0" style="stop-color:#14345A"/>
	<stop  offset="1" style="stop-color:#001C49"/>
</radialGradient>
<rect class="st0" width="800" height="400"/>
<g class="st1">
	<path class="st2" d="M121.7,124.8c1.9-0.5,4.2-0.8,6.9-0.8c4.2,0,7.6,0.5,10.2,1.4c5.3,1.8,8.9,5.2,10.8,10.3
		c0.4,1.1,0.6,2.3,0.6,3.6c0,1.8-0.5,3.2-1.5,4.4c-1,1.1-2.2,1.7-3.7,1.7c-2.4-0.3-4.7-1.8-6.9-4.5c-0.9-1.1-2-2.1-3.1-2.7
		c-1.1-0.7-2.7-1-4.5-1c-5.5,0-8.8,1-9.8,3.1c-0.2,0.4-0.3,0.8-0.3,1.1c0,3.6,6,8.3,18.1,13.9c3.1,1.5,6.4,3.8,9.9,7.1
		c3.5,3.3,5.8,6.1,7,8.4c1.3,2.5,1.9,5,1.9,7.5c0,3.5-1.2,7-3.5,10.3c-2.3,3.3-5.6,6-9.8,8.1c-1.9,0.9-3.9,1.6-5.9,2
		c-2.1,0.4-4.7,0.6-8,0.6c-0.4,0-0.8,0-1.1,0c-3.6-0.1-6.4-0.3-8.3-0.6c-3.1-0.4-5.7-1.2-7.8-2.3c-2.7-1.4-5.2-3.1-7.3-5.4
		c-2.2-2.2-3.3-4.1-3.3-5.5c0-1.6,0.8-2.9,2.3-4c1.5-1.1,3.1-1.6,4.9-1.6c1.9,0,3.4,0.7,4.5,2c3.1,3.5,8,5.3,14.7,5.3
		c7.7,0,12.7-2.1,14.8-6.3c0.4-0.8,0.6-1.8,0.6-2.8c0-3.9-6.4-9.3-19.1-16.3c-4.9-2.7-8.3-4.9-10.3-6.6c-2.3-1.9-4-4.2-5.2-6.9
		c-1-2.3-1.6-4.6-1.6-7c0-0.1,0-0.3,0-0.5c0-3.4,1.2-6.6,3.6-9.5C114.2,128.1,117.6,125.9,121.7,124.8z"/>
</g>
<g class="st1">
	<path class="st2" d="M200.2,124.9c1.6-0.3,3.2-0.5,5-0.5c3.3,0,6.6,0.5,9.8,1.5c3.2,1,5.4,2.2,6.8,3.7c0.7,0.7,1.2,2.5,1.3,5.2
		c0.2,2.8,0.2,9.1,0.2,19.1c0.1,10.6,0.2,17.3,0.4,20c0.2,2.7,0.8,5.3,1.8,7.8c1.3,3.8,2.7,6.7,4.4,8.9c1.6,2.4,2.4,4.4,2.5,5.9
		c0,1.9-0.6,3.4-1.7,4.6c-1.1,1.2-2.5,1.8-4.1,1.8c-2.1,0-4-0.9-5.6-2.8c-1.3-1.5-2.8-3.9-4.5-7.3c-1.8-3.4-2.7-5.7-2.7-6.9
		c0-0.1-0.1-0.2-0.2-0.2c-0.7,0-2.3,1.3-4.8,3.9c-5.7,5.7-12.1,9-19.1,9.7c-0.7,0.1-1.8,0.2-3.1,0.2c-8.9,0-15.5-4.1-19.8-12.3
		c-1.7-3.4-2.6-7.1-2.7-10.9v-2.7c0-5.2,0.7-9.8,2-13.9c2.9-8.4,7.7-16,14.3-22.7C187.1,130.3,193.7,126.3,200.2,124.9z
		 M209.9,138.4c-0.8-0.5-1.9-0.8-3.3-0.8c-2.6,0-5.6,0.9-8.9,2.7c-3.3,1.8-6.4,4.2-9.2,7.1c-3.2,3.5-5.8,7.6-7.8,12.2
		c-2.6,5.4-3.9,10.3-3.9,14.7c0,6.3,2.5,10.1,7.5,11.4c1.1,0.3,2.2,0.5,3.3,0.6c4.2,0,8.1-2,12-6c3.8-4,6.6-9.3,8.5-15.9
		c1.9-6.4,2.8-13.3,2.8-20.8C210.8,140.7,210.5,138.9,209.9,138.4z"/>
</g>
<g class="st1">
	<path class="st2" d="M262.7,126.8c0.8-0.2,2.2-0.3,4.2-0.3c4.5,0,8.5,0.9,12.2,2.8c0.2,0.1,0.6,0.3,1.1,0.5
		c3.3,1.5,5.3,2.8,5.9,3.9c0.7,1.4,1.1,5.4,1.3,12.2c0,1,0,1.8,0,2.3c0.2,8.8,1,20.7,2.5,35.8c0.9,10.1,1.4,17.3,1.4,21.7
		c0,5.8-0.5,9.8-1.6,12c-1,2.1-2.8,4.5-5.2,7c-5.5,5.5-13.5,8.3-23.9,8.3c-7.1,0-13.7-1.5-19.8-4.4c-4.5-2.1-6.7-4.3-6.7-6.7
		c0-0.9,0.3-2.1,0.8-3.4c0.9-2.3,2.4-3.4,4.4-3.4c1.4,0,3.6,0.7,6.7,2.2c2.7,1.3,6.9,2.2,12.5,3c0.8,0.1,1.7,0.2,2.7,0.2h0.2
		c6.5,0,11.6-3.4,15.3-10.3c0.7-1.4,1.1-3.7,1.1-7c0-2.1-0.2-4.5-0.5-7.3l-0.6-7.8l-3.1,2.7c-4.9,4.2-9.7,6.3-14.4,6.3
		c-0.2,0-0.5,0-1,0.1c-0.5,0.1-0.8,0.1-1,0.1c-6,0-11.1-2.4-15.2-7.3c-4.1-4.9-6.1-11.1-6.1-18.8c0-12.1,2.6-22,7.8-29.8
		C248.6,133.4,255,128.7,262.7,126.8z M273.6,141.2c-0.3-0.9-1.7-1.4-4.1-1.4c-2.6,0-5.2,0.5-7.7,1.6c-8.2,3.5-12.3,12.3-12.3,26.4
		c0,7.2,2.1,11.8,6.4,13.9c1.4,0.6,2.7,0.9,4.1,0.9c5.6,0,9.7-3.8,12.2-11.4c0.7-2.3,1.2-7,1.3-14.1c0.2-7.1,0.2-12,0.2-14.5
		C273.8,141.7,273.7,141.3,273.6,141.2z"/>
</g>
<g class="st1">
	<path class="st2" d="M303.9,139c5.2-10.2,12.5-15.3,21.9-15.3c3.8,0,8,0.9,12.8,2.7c9.8,3.8,14.7,9.3,14.7,16.7
		c0,2.5-0.6,4.9-1.9,7.3c-2,4.2-6.3,8-13,11.5c-6.7,3.5-13.6,5.5-20.7,6c-4.2,0.3-6.3,0.8-6.3,1.6c0.1,1.3,0.9,3.2,2.3,5.7
		c1.4,2.6,2.8,4.5,4.3,5.9c4.4,4.3,9.7,6.4,15.9,6.4c3.8,0,8.2-0.6,13.4-1.7c4.8-0.8,8.1-1.3,10-1.3c3.1,0,5,1.2,5.6,3.6
		c0,0.3,0,0.9,0,1.7c0,3-1,5.1-3.1,6.1c-1.3,0.6-5.1,1.4-11.6,2.3c-5.6,0.8-10.5,1.3-14.7,1.4c-6.3,0-11.4-0.9-15.3-2.8
		c-2.9-1.4-6-3.7-9.4-7c-3.3-3.3-5.7-6.6-7.2-9.7c-1.7-3.2-2.7-8.1-3.1-14.7c0-0.5,0-1.3,0-2.3c0-1,0-1.8,0-2.2
		C298.5,153,300.3,145.8,303.9,139z M336.4,138.9c-1.9-1-4.3-1.7-7.2-2.1h-1.3c-6.3,0-10.9,3.8-14.1,11.3c-1,2.9-1.6,4.7-1.6,5.3
		c0,1.1,0.9,1.7,2.8,1.7c1,0,2-0.1,2.8-0.2c5.6-0.6,10.6-2.2,14.8-4.8c4.3-2.6,6.4-5.1,6.4-7.6C339.2,141.1,338.2,139.9,336.4,138.9
		z"/>
</g>
<g class="st1">
	<path class="st2" d="M450.6,124.8c1.9-0.5,4.2-0.8,6.9-0.8c4.2,0,7.6,0.5,10.2,1.4c5.3,1.8,8.9,5.2,10.8,10.3
		c0.4,1.1,0.6,2.3,0.6,3.6c0,1.8-0.5,3.2-1.5,4.4c-1,1.1-2.2,1.7-3.7,1.7c-2.4-0.3-4.7-1.8-6.9-4.5c-0.9-1.1-2-2.1-3.1-2.7
		c-1.1-0.7-2.7-1-4.5-1c-5.5,0-8.8,1-9.8,3.1c-0.2,0.4-0.3,0.8-0.3,1.1c0,3.6,6,8.3,18.1,13.9c3.1,1.5,6.4,3.8,9.9,7.1
		c3.5,3.3,5.8,6.1,7,8.4c1.3,2.5,1.9,5,1.9,7.5c0,3.5-1.2,7-3.5,10.3c-2.3,3.3-5.6,6-9.8,8.1c-1.9,0.9-3.9,1.6-5.9,2
		c-2.1,0.4-4.7,0.6-8,0.6c-0.4,0-0.8,0-1.1,0c-3.6-0.1-6.4-0.3-8.3-0.6c-3.1-0.4-5.7-1.2-7.8-2.3c-2.7-1.4-5.2-3.1-7.3-5.4
		c-2.2-2.2-3.3-4.1-3.3-5.5c0-1.6,0.8-2.9,2.3-4c1.5-1.1,3.1-1.6,4.9-1.6c1.9,0,3.4,0.7,4.5,2c3.1,3.5,8,5.3,14.7,5.3
		c7.7,0,12.7-2.1,14.8-6.3c0.4-0.8,0.6-1.8,0.6-2.8c0-3.9-6.4-9.3-19.1-16.3c-4.9-2.7-8.3-4.9-10.3-6.6c-2.3-1.9-4-4.2-5.2-6.9
		c-1-2.3-1.6-4.6-1.6-7c0-0.1,0-0.3,0-0.5c0-3.4,1.2-6.6,3.6-9.5C443.1,128.1,446.5,125.9,450.6,124.8z"/>
</g>
<g class="st1">
	<path class="st2" d="M529.1,124.9c1.6-0.3,3.2-0.5,5-0.5c3.3,0,6.6,0.5,9.8,1.5c3.2,1,5.4,2.2,6.8,3.7c0.7,0.7,1.2,2.5,1.3,5.2
		c0.2,2.8,0.2,9.1,0.2,19.1c0.1,10.6,0.2,17.3,0.4,20c0.2,2.7,0.8,5.3,1.8,7.8c1.3,3.8,2.7,6.7,4.4,8.9c1.6,2.4,2.4,4.4,2.5,5.9
		c0,1.9-0.6,3.4-1.7,4.6c-1.1,1.2-2.5,1.8-4.1,1.8c-2.1,0-4-0.9-5.6-2.8c-1.3-1.5-2.8-3.9-4.5-7.3c-1.8-3.4-2.7-5.7-2.7-6.9
		c0-0.1-0.1-0.2-0.2-0.2c-0.7,0-2.3,1.3-4.8,3.9c-5.7,5.7-12.1,9-19.1,9.7c-0.7,0.1-1.8,0.2-3.1,0.2c-8.9,0-15.5-4.1-19.8-12.3
		c-1.7-3.4-2.6-7.1-2.7-10.9v-2.7c0-5.2,0.7-9.8,2-13.9c2.9-8.4,7.7-16,14.3-22.7C516,130.3,522.6,126.3,529.1,124.9z M538.8,138.4
		c-0.8-0.5-1.9-0.8-3.3-0.8c-2.6,0-5.6,0.9-8.9,2.7c-3.3,1.8-6.4,4.2-9.2,7.1c-3.2,3.5-5.8,7.6-7.8,12.2c-2.6,5.4-3.9,10.3-3.9,14.7
		c0,6.3,2.5,10.1,7.5,11.4c1.1,0.3,2.2,0.5,3.3,0.6c4.2,0,8.1-2,12-6c3.8-4,6.6-9.3,8.5-15.9c1.9-6.4,2.8-13.3,2.8-20.8
		C539.8,140.7,539.5,138.9,538.8,138.4z"/>
</g>
<g class="st1">
	<path class="st2" d="M565.2,125.9c1-1.1,2.5-1.7,4.4-1.7c0.1,0.1,0.2,0.2,0.3,0.2c1.8,0,3.3,0.5,4.7,1.6c1,0.8,1.8,3.8,2.2,8.8
		c0.4,4.8,0.8,7.2,1.3,7.2c0.4,0,1.1-1,2.2-3.1c1.3-2.5,3-4.9,5.3-7.3c2.7-2.7,5-4.5,6.9-5.5c2.2-1,5-1.6,8.4-1.6
		c8.1,0,15.1,3.3,20.9,10c3.8,4,6.5,8.8,8.1,14.4c2.1,6.5,3.3,14,3.8,22.5c0.4,6.5,0.6,10.6,0.6,12.5c0,7.5-0.9,12-2.8,13.4
		c-1,0.8-2.3,1.3-3.8,1.3c-1.9,0-3.4-0.6-4.7-1.9c-0.7-0.7-1.2-1.8-1.3-3.4c-0.2-1.5-0.2-4.8-0.2-9.8c0-6.5-0.4-12.8-1.3-19.1
		c-1-7.7-3.3-14.2-6.9-19.4c-3.5-5.2-7.4-7.8-11.6-7.8c-2.1,0-4.1,0.7-5.9,2.2c-7.5,6.3-11.6,20.1-12.2,41.6
		c-0.2,8.4-0.6,13.6-1.3,15.5c-0.6,1.9-2.2,2.9-4.7,2.9c-3.3,0-5.5-1.4-6.4-4.1c-1.1-3.3-2-10.1-2.7-20.3c-0.4-5-1.1-11.8-2.2-20.3
		c-1.5-11-2.2-17.3-2.2-18.8c-0.2-3.3-0.3-5.2-0.3-5.6C563.9,128.2,564.3,126.7,565.2,125.9z"/>
</g>
<g class="st1">
	<path class="st2" d="M659.3,124.8c1.9-0.5,4.2-0.8,6.9-0.8c4.2,0,7.6,0.5,10.2,1.4c5.3,1.8,8.9,5.2,10.8,10.3
		c0.4,1.1,0.6,2.3,0.6,3.6c0,1.8-0.5,3.2-1.5,4.4c-1,1.1-2.2,1.7-3.7,1.7c-2.4-0.3-4.7-1.8-6.9-4.5c-0.9-1.1-2-2.1-3.1-2.7
		c-1.1-0.7-2.7-1-4.5-1c-5.5,0-8.8,1-9.8,3.1c-0.2,0.4-0.3,0.8-0.3,1.1c0,3.6,6,8.3,18.1,13.9c3.1,1.5,6.4,3.8,9.9,7.1
		c3.5,3.3,5.8,6.1,7,8.4c1.3,2.5,1.9,5,1.9,7.5c0,3.5-1.2,7-3.5,10.3c-2.3,3.3-5.6,6-9.8,8.1c-1.9,0.9-3.9,1.6-5.9,2
		c-2.1,0.4-4.7,0.6-8,0.6c-0.4,0-0.8,0-1.1,0c-3.6-0.1-6.4-0.3-8.3-0.6c-3.1-0.4-5.7-1.2-7.8-2.3c-2.7-1.4-5.2-3.1-7.3-5.4
		c-2.2-2.2-3.3-4.1-3.3-5.5c0-1.6,0.8-2.9,2.3-4c1.5-1.1,3.1-1.6,4.9-1.6c1.9,0,3.4,0.7,4.5,2c3.1,3.5,8,5.3,14.7,5.3
		c7.7,0,12.7-2.1,14.8-6.3c0.4-0.8,0.6-1.8,0.6-2.8c0-3.9-6.4-9.3-19.1-16.3c-4.9-2.7-8.3-4.9-10.3-6.6c-2.3-1.9-4-4.2-5.2-6.9
		c-1-2.3-1.6-4.6-1.6-7c0-0.1,0-0.3,0-0.5c0-3.4,1.2-6.6,3.6-9.5C651.8,128.1,655.2,125.9,659.3,124.8z"/>
</g>
<g class="st1">
	<path class="st3" d="M108.7,292c0.3-0.1,0.6-0.1,1-0.1c0.7,0,1.3,0.1,2,0.3c0.6,0.2,1.1,0.4,1.4,0.7c0.1,0.1,0.2,0.5,0.3,1
		c0,0.6,0,1.8,0,3.8c0,2.1,0,3.5,0.1,4c0,0.5,0.2,1.1,0.4,1.6c0.3,0.8,0.5,1.3,0.9,1.8c0.3,0.5,0.5,0.9,0.5,1.2
		c0,0.4-0.1,0.7-0.3,0.9c-0.2,0.2-0.5,0.4-0.8,0.4c-0.4,0-0.8-0.2-1.1-0.6c-0.3-0.3-0.6-0.8-0.9-1.5c-0.4-0.7-0.5-1.1-0.5-1.4
		c0,0,0,0,0,0c-0.1,0-0.5,0.3-1,0.8c-1.1,1.1-2.4,1.8-3.8,1.9c-0.1,0-0.4,0-0.6,0c-1.8,0-3.1-0.8-4-2.5c-0.3-0.7-0.5-1.4-0.5-2.2
		v-0.5c0-1,0.1-2,0.4-2.8c0.6-1.7,1.5-3.2,2.9-4.5C106.1,293.1,107.4,292.3,108.7,292z M110.7,294.7c-0.2-0.1-0.4-0.2-0.7-0.2
		c-0.5,0-1.1,0.2-1.8,0.5c-0.7,0.4-1.3,0.8-1.8,1.4c-0.6,0.7-1.2,1.5-1.6,2.4c-0.5,1.1-0.8,2.1-0.8,2.9c0,1.3,0.5,2,1.5,2.3
		c0.2,0.1,0.4,0.1,0.7,0.1c0.8,0,1.6-0.4,2.4-1.2c0.8-0.8,1.3-1.9,1.7-3.2c0.4-1.3,0.6-2.7,0.6-4.2
		C110.8,295.1,110.8,294.8,110.7,294.7z"/>
</g>
<g class="st1">
	<path class="st3" d="M132.8,292c0.4-0.1,0.8-0.2,1.4-0.2c0.8,0,1.5,0.1,2,0.3c1.1,0.4,1.8,1,2.2,2.1c0.1,0.2,0.1,0.5,0.1,0.7
		c0,0.4-0.1,0.6-0.3,0.9c-0.2,0.2-0.4,0.3-0.7,0.3c-0.5-0.1-0.9-0.4-1.4-0.9c-0.2-0.2-0.4-0.4-0.6-0.5c-0.2-0.1-0.5-0.2-0.9-0.2
		c-1.1,0-1.8,0.2-2,0.6c0,0.1-0.1,0.2-0.1,0.2c0,0.7,1.2,1.7,3.6,2.8c0.6,0.3,1.3,0.8,2,1.4c0.7,0.7,1.2,1.2,1.4,1.7
		c0.3,0.5,0.4,1,0.4,1.5c0,0.7-0.2,1.4-0.7,2.1c-0.5,0.7-1.1,1.2-2,1.6c-0.4,0.2-0.8,0.3-1.2,0.4c-0.4,0.1-0.9,0.1-1.6,0.1
		c-0.1,0-0.2,0-0.2,0c-0.7,0-1.3-0.1-1.7-0.1c-0.6-0.1-1.1-0.2-1.6-0.5c-0.5-0.3-1-0.6-1.5-1.1c-0.4-0.4-0.7-0.8-0.7-1.1
		c0-0.3,0.2-0.6,0.5-0.8c0.3-0.2,0.6-0.3,1-0.3c0.4,0,0.7,0.1,0.9,0.4c0.6,0.7,1.6,1.1,2.9,1.1c1.5,0,2.5-0.4,3-1.3
		c0.1-0.2,0.1-0.4,0.1-0.6c0-0.8-1.3-1.9-3.8-3.3c-1-0.5-1.7-1-2.1-1.3c-0.5-0.4-0.8-0.8-1-1.4c-0.2-0.5-0.3-0.9-0.3-1.4
		c0,0,0-0.1,0-0.1c0-0.7,0.2-1.3,0.7-1.9C131.3,292.6,132,292.2,132.8,292z"/>
</g>
<g class="st1">
	<path class="st3" d="M148.8,292c0.3-0.1,0.6-0.1,1-0.1c0.7,0,1.3,0.1,2,0.3c0.6,0.2,1.1,0.4,1.4,0.7c0.1,0.1,0.2,0.5,0.3,1
		c0,0.6,0,1.8,0,3.8c0,2.1,0,3.5,0.1,4c0,0.5,0.2,1.1,0.4,1.6c0.3,0.8,0.5,1.3,0.9,1.8c0.3,0.5,0.5,0.9,0.5,1.2
		c0,0.4-0.1,0.7-0.3,0.9c-0.2,0.2-0.5,0.4-0.8,0.4c-0.4,0-0.8-0.2-1.1-0.6c-0.3-0.3-0.6-0.8-0.9-1.5c-0.4-0.7-0.5-1.1-0.5-1.4
		c0,0,0,0,0,0c-0.1,0-0.5,0.3-1,0.8c-1.1,1.1-2.4,1.8-3.8,1.9c-0.1,0-0.4,0-0.6,0c-1.8,0-3.1-0.8-4-2.5c-0.3-0.7-0.5-1.4-0.5-2.2
		v-0.5c0-1,0.1-2,0.4-2.8c0.6-1.7,1.5-3.2,2.9-4.5C146.2,293.1,147.5,292.3,148.8,292z M150.8,294.7c-0.2-0.1-0.4-0.2-0.7-0.2
		c-0.5,0-1.1,0.2-1.8,0.5c-0.7,0.4-1.3,0.8-1.8,1.4c-0.6,0.7-1.2,1.5-1.6,2.4c-0.5,1.1-0.8,2.1-0.8,2.9c0,1.3,0.5,2,1.5,2.3
		c0.2,0.1,0.4,0.1,0.7,0.1c0.8,0,1.6-0.4,2.4-1.2c0.8-0.8,1.3-1.9,1.7-3.2c0.4-1.3,0.6-2.7,0.6-4.2
		C150.9,295.1,150.9,294.8,150.8,294.7z"/>
</g>
<g class="st1">
	<path class="st3" d="M156.3,292.2c0.2-0.2,0.5-0.3,0.9-0.3c0,0,0,0,0.1,0c0.4,0,0.7,0.1,0.9,0.3c0.2,0.2,0.4,0.8,0.4,1.8
		c0.1,1,0.2,1.4,0.3,1.4c0.1,0,0.2-0.2,0.4-0.6c0.3-0.5,0.6-1,1.1-1.5c0.5-0.5,1-0.9,1.4-1.1c0.4-0.2,1-0.3,1.7-0.3
		c1.6,0,3,0.7,4.2,2c0.8,0.8,1.3,1.8,1.6,2.9c0.4,1.3,0.7,2.8,0.8,4.5c0.1,1.3,0.1,2.1,0.1,2.5c0,1.5-0.2,2.4-0.6,2.7
		c-0.2,0.2-0.5,0.3-0.8,0.3c-0.4,0-0.7-0.1-0.9-0.4c-0.1-0.1-0.2-0.4-0.3-0.7c0-0.3,0-1,0-2c0-1.3-0.1-2.6-0.3-3.8
		c-0.2-1.5-0.7-2.8-1.4-3.9c-0.7-1-1.5-1.6-2.3-1.6c-0.4,0-0.8,0.1-1.2,0.4c-1.5,1.3-2.3,4-2.4,8.3c0,1.7-0.1,2.7-0.3,3.1
		c-0.1,0.4-0.4,0.6-0.9,0.6c-0.7,0-1.1-0.3-1.3-0.8c-0.2-0.7-0.4-2-0.5-4.1c-0.1-1-0.2-2.4-0.4-4.1c-0.3-2.2-0.4-3.5-0.4-3.8
		c0-0.7-0.1-1-0.1-1.1C156.1,292.6,156.1,292.4,156.3,292.2z"/>
</g>
<g class="st1">
	<path class="st3" d="M175.4,292c0.4-0.1,0.8-0.2,1.4-0.2c0.8,0,1.5,0.1,2,0.3c1.1,0.4,1.8,1,2.2,2.1c0.1,0.2,0.1,0.5,0.1,0.7
		c0,0.4-0.1,0.6-0.3,0.9c-0.2,0.2-0.4,0.3-0.7,0.3c-0.5-0.1-0.9-0.4-1.4-0.9c-0.2-0.2-0.4-0.4-0.6-0.5c-0.2-0.1-0.5-0.2-0.9-0.2
		c-1.1,0-1.8,0.2-2,0.6c0,0.1-0.1,0.2-0.1,0.2c0,0.7,1.2,1.7,3.6,2.8c0.6,0.3,1.3,0.8,2,1.4c0.7,0.7,1.2,1.2,1.4,1.7
		c0.3,0.5,0.4,1,0.4,1.5c0,0.7-0.2,1.4-0.7,2.1c-0.5,0.7-1.1,1.2-2,1.6c-0.4,0.2-0.8,0.3-1.2,0.4c-0.4,0.1-0.9,0.1-1.6,0.1
		c-0.1,0-0.2,0-0.2,0c-0.7,0-1.3-0.1-1.7-0.1c-0.6-0.1-1.1-0.2-1.6-0.5c-0.5-0.3-1-0.6-1.5-1.1c-0.4-0.4-0.7-0.8-0.7-1.1
		c0-0.3,0.2-0.6,0.5-0.8c0.3-0.2,0.6-0.3,1-0.3c0.4,0,0.7,0.1,0.9,0.4c0.6,0.7,1.6,1.1,2.9,1.1c1.5,0,2.5-0.4,3-1.3
		c0.1-0.2,0.1-0.4,0.1-0.6c0-0.8-1.3-1.9-3.8-3.3c-1-0.5-1.7-1-2.1-1.3c-0.5-0.4-0.8-0.8-1-1.4c-0.2-0.5-0.3-0.9-0.3-1.4
		c0,0,0-0.1,0-0.1c0-0.7,0.2-1.3,0.7-1.9C173.9,292.6,174.6,292.2,175.4,292z"/>
</g>
<g class="st1">
	<path class="st3" d="M183.7,297.7c-0.1-0.2-0.1-0.4-0.1-0.6c0-0.3,0.1-0.6,0.2-0.8c0.1-0.2,0.3-0.4,0.4-0.5
		c0.3-0.1,1.1-0.2,2.3-0.3c1.1-0.1,2.1-0.1,3-0.1c2.7,0,4.2,0.1,4.7,0.2c0.8,0.3,1.2,0.7,1.2,1.3c0,0.3,0,0.5-0.1,0.7
		c-0.1,0.5-0.5,0.8-1,0.8c-0.5,0-0.8,0-1-0.1c-0.3-0.1-1.1-0.1-2.5-0.1c-0.1,0-0.3,0-0.6,0c-0.3,0-0.5,0-0.6,0
		c-1.4,0.1-2.7,0.1-4,0.1h-0.7c-0.5,0-0.7,0-0.8-0.1C183.9,298.1,183.8,298,183.7,297.7z"/>
</g>
<g class="st1">
	<path class="st3" d="M200,292c0.4-0.1,0.8-0.2,1.4-0.2c0.8,0,1.5,0.1,2,0.3c1.1,0.4,1.8,1,2.2,2.1c0.1,0.2,0.1,0.5,0.1,0.7
		c0,0.4-0.1,0.6-0.3,0.9c-0.2,0.2-0.4,0.3-0.7,0.3c-0.5-0.1-0.9-0.4-1.4-0.9c-0.2-0.2-0.4-0.4-0.6-0.5c-0.2-0.1-0.5-0.2-0.9-0.2
		c-1.1,0-1.8,0.2-2,0.6c0,0.1-0.1,0.2-0.1,0.2c0,0.7,1.2,1.7,3.6,2.8c0.6,0.3,1.3,0.8,2,1.4c0.7,0.7,1.2,1.2,1.4,1.7
		c0.3,0.5,0.4,1,0.4,1.5c0,0.7-0.2,1.4-0.7,2.1c-0.5,0.7-1.1,1.2-2,1.6c-0.4,0.2-0.8,0.3-1.2,0.4c-0.4,0.1-0.9,0.1-1.6,0.1
		c-0.1,0-0.2,0-0.2,0c-0.7,0-1.3-0.1-1.7-0.1c-0.6-0.1-1.1-0.2-1.6-0.5c-0.5-0.3-1-0.6-1.5-1.1c-0.4-0.4-0.7-0.8-0.7-1.1
		c0-0.3,0.2-0.6,0.5-0.8c0.3-0.2,0.6-0.3,1-0.3c0.4,0,0.7,0.1,0.9,0.4c0.6,0.7,1.6,1.1,2.9,1.1c1.5,0,2.5-0.4,3-1.3
		c0.1-0.2,0.1-0.4,0.1-0.6c0-0.8-1.3-1.9-3.8-3.3c-1-0.5-1.7-1-2.1-1.3c-0.5-0.4-0.8-0.8-1-1.4c-0.2-0.5-0.3-0.9-0.3-1.4
		c0,0,0-0.1,0-0.1c0-0.7,0.2-1.3,0.7-1.9C198.5,292.6,199.2,292.2,200,292z"/>
</g>
<g class="st1">
	<path class="st3" d="M209.7,294.8c1-2,2.5-3.1,4.4-3.1c0.8,0,1.6,0.2,2.6,0.5c2,0.8,2.9,1.9,2.9,3.3c0,0.5-0.1,1-0.4,1.5
		c-0.4,0.8-1.3,1.6-2.6,2.3c-1.3,0.7-2.7,1.1-4.1,1.2c-0.8,0.1-1.3,0.2-1.3,0.3c0,0.3,0.2,0.6,0.5,1.1c0.3,0.5,0.6,0.9,0.9,1.2
		c0.9,0.9,1.9,1.3,3.2,1.3c0.8,0,1.6-0.1,2.7-0.3c1-0.2,1.6-0.3,2-0.3c0.6,0,1,0.2,1.1,0.7c0,0.1,0,0.2,0,0.3c0,0.6-0.2,1-0.6,1.2
		c-0.3,0.1-1,0.3-2.3,0.5c-1.1,0.2-2.1,0.3-2.9,0.3c-1.3,0-2.3-0.2-3.1-0.6c-0.6-0.3-1.2-0.7-1.9-1.4c-0.7-0.7-1.1-1.3-1.4-1.9
		c-0.3-0.6-0.5-1.6-0.6-2.9c0-0.1,0-0.3,0-0.5c0-0.2,0-0.4,0-0.4C208.6,297.6,209,296.2,209.7,294.8z M216.2,294.8
		c-0.4-0.2-0.9-0.3-1.4-0.4h-0.3c-1.3,0-2.2,0.8-2.8,2.3c-0.2,0.6-0.3,0.9-0.3,1.1c0,0.2,0.2,0.3,0.6,0.3c0.2,0,0.4,0,0.6,0
		c1.1-0.1,2.1-0.4,3-1c0.9-0.5,1.3-1,1.3-1.5C216.7,295.2,216.5,295,216.2,294.8z"/>
</g>
<g class="st1">
	<path class="st3" d="M223.1,292.1c0.2-0.2,0.5-0.3,0.9-0.3c0.4,0,0.7,0.1,0.9,0.3c0.2,0.2,0.3,0.6,0.3,1v0.7l1-0.4
		c0.7-0.3,1.3-0.6,2-0.7c0.5-0.1,1.1-0.2,1.9-0.2c1.3,0,2.1,0.1,2.6,0.3c0.4,0.2,0.7,0.6,0.7,1.1c0,0.5-0.2,0.9-0.6,1.2
		c-0.2,0.1-0.4,0.1-0.6,0.1c-0.1,0-0.4,0-0.9-0.1c-0.3-0.1-0.7-0.1-1.2-0.1c-1.5,0-2.8,0.5-3.6,1.5c-0.4,0.5-0.7,0.9-0.8,1.3
		c-0.1,0.4-0.2,1.1-0.2,2c0,0.3,0,1,0.1,2.3c0,0.5,0,1.2,0,2.1c0,1.1,0,1.7-0.1,1.8c-0.2,0.2-0.4,0.3-0.7,0.4
		c-0.2,0.1-0.4,0.1-0.5,0.1c-0.6,0-1-0.4-1.3-1.2c-0.2-0.5-0.3-1.4-0.3-2.6c0-0.2,0-1.6,0.1-4.3c0-2.7,0.1-4.4,0.1-5.1
		C222.9,292.7,222.9,292.2,223.1,292.1z"/>
</g>
<g class="st1">
	<path class="st3" d="M235.5,287.1c0.3-0.3,0.7-0.4,1.4-0.4c0.3,0,0.6,0.1,0.8,0.2c0.4,0.3,0.6,0.8,0.6,1.4s-0.2,1.2-0.6,1.4
		c-0.2,0.1-0.4,0.2-0.8,0.2c-0.8,0-1.2-0.1-1.4-0.3c-0.2-0.2-0.3-0.6-0.3-1.2C235.1,287.8,235.2,287.4,235.5,287.1z M235.4,292.9
		c0.2-0.3,0.5-0.4,1-0.4h0c0.6,0,1,0.3,1.1,0.9c0.1,0.6,0.2,2.7,0.2,6.2c0,2.9,0,4.7,0,5.3s-0.1,1.1-0.3,1.3
		c-0.3,0.3-0.6,0.5-0.9,0.5c0,0,0,0-0.1,0c-0.4,0-0.7-0.2-0.9-0.5c-0.2-0.2-0.3-0.7-0.3-1.3c0-0.7,0-2.5,0-5.4
		C235.1,295.4,235.2,293.2,235.4,292.9z"/>
</g>
<g class="st1">
	<path class="st3" d="M243.3,310l-0.3-2.6c0-0.1,0-0.2,0-0.3c0-1-0.1-1.9-0.3-2.9c-0.1-0.4-0.1-0.5-0.1-0.5h-1.1h-0.1
		c0,0-0.1,0-0.1,0c-0.7,0-1.2-0.1-1.5-0.3c-0.4-0.2-0.5-0.6-0.5-1.1c0-0.6,0.2-1,0.5-1.2c0.6-0.2,1.1-0.3,1.6-0.3h1v-1.4
		c0-1.4,0.3-2.8,1-4.1c0.3-0.6,0.8-1.3,1.5-1.9c0.6-0.6,1.3-1,2-1.2c0.8-0.2,1.6-0.4,2.4-0.4c0.1,0,0.1,0,0.2,0
		c0.8,0,1.4,0.2,1.8,0.4c0.3,0.2,0.4,0.5,0.4,0.9c0,0.2-0.1,0.5-0.2,0.8c0,0.3-0.2,0.5-0.6,0.6c-0.2,0.1-0.6,0.1-1.1,0.1
		c-1.2,0-2.1,0.3-2.8,0.8c-0.7,0.5-1.2,1.5-1.4,2.9c-0.1,0.7-0.2,1.3-0.2,1.6c0,0,0,0.1,0,0.1l0,0.8l1.6,0.1c0.5,0,0.8,0,0.9,0
		c0.6,0,1.5-0.1,2.6-0.3c0.1,0,0.3,0,0.6,0c0.3,0,0.6,0.1,0.9,0.3c0.3,0.2,0.4,0.6,0.4,1.2c0,0.6-0.1,0.9-0.3,0.9
		c-1.2,0.3-1.9,0.4-2,0.4c-0.7,0.1-1.5,0.2-2.6,0.2c-0.1,0-0.2,0-0.3,0h-1.8l0.1,0.4v0c0,0.7,0.1,1.5,0.2,2.5
		c0.1,0.8,0.2,1.6,0.3,2.3c0.3,1.5,0.4,2.5,0.4,2.8c0,0.3-0.1,0.6-0.2,0.8c-0.3,0.5-0.8,0.7-1.3,0.7c-0.6,0-0.9-0.2-1.1-0.7h0
		L243.3,310z"/>
</g>
<g class="st1">
	<path class="st3" d="M255.8,301.2c0.3-0.4,0.7-0.5,1-0.6c0.4,0,0.8,0.3,1.3,0.8c0.4,0.5,0.7,1,0.9,1.6c0.1,0.5,0.3,1.4,0.3,2.5
		l0.1,1.4l-0.1,0.4l-0.2,0.5l-0.4,0.5c-0.6,0.8-1.4,1.6-2.3,2.3c-0.6,0.4-1.3,0.8-2,1.1c0,0-0.1,0-0.1,0c-0.3,0-0.6-0.2-0.9-0.7
		c-0.2-0.3-0.3-0.5-0.4-0.7v-0.3l0.1-0.3l0.8-0.8c0.3-0.3,1-0.9,1.9-1.7c0.2-0.1,0.4-0.4,0.5-0.6c0.1-0.2,0.2-0.3,0.2-0.3
		c0.1-0.1,0.1-0.3,0.1-0.7c0-0.1,0-0.5-0.1-1c-0.1-0.4-0.3-0.9-0.6-1.4c-0.3-0.5-0.5-0.9-0.5-1.2
		C255.4,301.8,255.5,301.4,255.8,301.2z"/>
</g>
<g class="st1">
	<path class="st3" d="M275.9,282.7c0.2-0.2,0.5-0.4,0.9-0.4c0.5,0,0.9,0.2,1,0.6c0.1,0.4,0.2,1.7,0.3,3.7c0.1,2.8,0.2,4.6,0.2,5.5
		l0.1,1.8l0.7-0.7c0.8-0.7,1.6-1.1,2.5-1.1c0,0,0.1,0,0.1,0c2.2,0,3.8,1.1,4.9,3.3c0.6,1.1,0.8,2.4,0.8,3.9c0,0.2,0,0.9-0.1,2.2
		c-0.1,0.9-0.1,1.8-0.1,2.6c0,0.5,0,0.8,0,0.9c0,0.1,0,0.3,0,0.5c0,0.3-0.1,0.6-0.4,0.8c-0.3,0.3-0.6,0.4-0.9,0.4
		c-0.6,0-1-0.1-1.2-0.3c-0.3-0.2-0.5-0.8-0.5-1.6c0-0.8,0.1-1.6,0.2-2.7c0.1-1.1,0.2-2.2,0.2-3.2c0-0.3,0-0.5,0-0.6
		c-0.1-1-0.4-1.8-0.9-2.4c-0.5-0.6-1.1-1-1.7-1c-0.5,0-0.9,0.2-1.3,0.7c-0.5,0.5-0.8,1.3-1.1,2.3c-0.4,1.7-0.7,3.8-1,6.4
		c-0.1,1-0.3,1.7-0.5,1.8c-0.3,0.2-0.6,0.3-0.8,0.3c-0.3,0-0.6-0.1-0.8-0.3c-0.2-0.2-0.3-0.6-0.3-1.4c-0.1-0.8-0.1-2.8-0.1-6.1
		c-0.1-5.4-0.2-9.2-0.2-11.6c0-2-0.1-3-0.1-3.2C275.6,283.4,275.7,282.8,275.9,282.7z"/>
</g>
<g class="st1">
	<path class="st3" d="M296.8,292c0.3-0.1,0.6-0.1,1-0.1c0.7,0,1.3,0.1,2,0.3c0.6,0.2,1.1,0.4,1.4,0.7c0.1,0.1,0.2,0.5,0.3,1
		c0,0.6,0,1.8,0,3.8c0,2.1,0,3.5,0.1,4c0,0.5,0.2,1.1,0.4,1.6c0.3,0.8,0.5,1.3,0.9,1.8c0.3,0.5,0.5,0.9,0.5,1.2
		c0,0.4-0.1,0.7-0.3,0.9c-0.2,0.2-0.5,0.4-0.8,0.4c-0.4,0-0.8-0.2-1.1-0.6c-0.3-0.3-0.6-0.8-0.9-1.5c-0.4-0.7-0.5-1.1-0.5-1.4
		c0,0,0,0,0,0c-0.1,0-0.5,0.3-1,0.8c-1.1,1.1-2.4,1.8-3.8,1.9c-0.1,0-0.4,0-0.6,0c-1.8,0-3.1-0.8-4-2.5c-0.3-0.7-0.5-1.4-0.5-2.2
		v-0.5c0-1,0.1-2,0.4-2.8c0.6-1.7,1.5-3.2,2.9-4.5C294.2,293.1,295.5,292.3,296.8,292z M298.8,294.7c-0.2-0.1-0.4-0.2-0.7-0.2
		c-0.5,0-1.1,0.2-1.8,0.5c-0.7,0.4-1.3,0.8-1.8,1.4c-0.6,0.7-1.2,1.5-1.6,2.4c-0.5,1.1-0.8,2.1-0.8,2.9c0,1.3,0.5,2,1.5,2.3
		c0.2,0.1,0.4,0.1,0.7,0.1c0.8,0,1.6-0.4,2.4-1.2c0.8-0.8,1.3-1.9,1.7-3.2c0.4-1.3,0.6-2.7,0.6-4.2
		C299,295.1,298.9,294.8,298.8,294.7z"/>
</g>
<g class="st1">
	<path class="st3" d="M304.3,292.2c0.2-0.2,0.5-0.3,0.9-0.3c0,0,0,0,0.1,0c0.4,0,0.7,0.1,0.9,0.3c0.2,0.2,0.4,0.8,0.4,1.8
		c0.1,1,0.2,1.4,0.3,1.4c0.1,0,0.2-0.2,0.4-0.6c0.3-0.5,0.6-1,1.1-1.5c0.5-0.5,1-0.9,1.4-1.1c0.4-0.2,1-0.3,1.7-0.3
		c1.6,0,3,0.7,4.2,2c0.8,0.8,1.3,1.8,1.6,2.9c0.4,1.3,0.7,2.8,0.8,4.5c0.1,1.3,0.1,2.1,0.1,2.5c0,1.5-0.2,2.4-0.6,2.7
		c-0.2,0.2-0.5,0.3-0.8,0.3c-0.4,0-0.7-0.1-0.9-0.4c-0.1-0.1-0.2-0.4-0.3-0.7c0-0.3,0-1,0-2c0-1.3-0.1-2.6-0.3-3.8
		c-0.2-1.5-0.7-2.8-1.4-3.9c-0.7-1-1.5-1.6-2.3-1.6c-0.4,0-0.8,0.1-1.2,0.4c-1.5,1.3-2.3,4-2.4,8.3c0,1.7-0.1,2.7-0.3,3.1
		c-0.1,0.4-0.4,0.6-0.9,0.6c-0.7,0-1.1-0.3-1.3-0.8c-0.2-0.7-0.4-2-0.5-4.1c-0.1-1-0.2-2.4-0.4-4.1c-0.3-2.2-0.4-3.5-0.4-3.8
		c0-0.7-0.1-1-0.1-1.1C304.1,292.6,304.1,292.4,304.3,292.2z"/>
</g>
<g class="st1">
	<path class="st3" d="M330.3,283.4c0.2-0.1,0.4-0.1,0.5-0.1c0.2,0,0.5,0.1,0.7,0.3c0.7,0.6,1,2.8,1,6.5c0,5.9,0.6,10.6,1.7,14
		c0.3,0.9,0.4,1.5,0.5,1.9c0,0.1,0,0.2-0.1,0.3c-0.2,0.3-0.5,0.5-1.1,0.5c-0.3,0-0.5,0-0.7-0.1c-0.5-0.2-1-1.2-1.5-3l-0.2-0.9
		l-0.4,0.7c-0.3,0.5-0.7,1-1.3,1.6c-1.1,1.2-2.4,1.8-3.9,1.8c-1.4,0-2.6-0.5-3.6-1.6c-0.9-0.9-1.4-2.1-1.6-3.5
		c0-0.2-0.1-0.6-0.1-1.1c0-1.7,0.5-3.3,1.4-4.8c0.9-1.5,2.1-2.5,3.4-3c0.6-0.2,1.2-0.3,1.9-0.3c0.9,0,1.7,0.2,2.3,0.5
		c0.5,0.3,0.8,0.3,0.8,0.3c0-0.1-0.1-1-0.2-2.7c-0.2-2-0.3-3.5-0.3-4.7v-0.5c0-0.8,0.1-1.3,0.2-1.6
		C329.8,283.7,330,283.5,330.3,283.4z M328.2,295.5c-0.5-0.2-1-0.3-1.4-0.3c-1.4,0-2.6,1-3.4,2.9c-0.4,0.8-0.5,1.6-0.5,2.5
		c0,1,0.2,1.8,0.7,2.5s1,1.2,1.7,1.3c0,0,0.1,0,0.1,0c0.1,0,0.1,0,0.1,0c0.9,0,1.8-0.7,2.8-2.1s1.5-2.9,1.7-4.5
		c0-0.5,0.1-0.7,0.1-0.8c0-0.3-0.1-0.5-0.4-0.8C329.1,296,328.7,295.8,328.2,295.5z"/>
</g>
<g class="st1">
	<path class="st3" d="M336.3,292.2c0.2-0.2,0.5-0.3,0.9-0.3c0.3,0,0.6,0.1,0.8,0.3c0.2,0.1,0.3,0.3,0.3,0.5s0.2,0.8,0.3,1.9
		c0.1,0.8,0.3,1.7,0.7,2.9c0.2,0.8,0.4,1.8,0.6,3l0.2,1.5l0.3-0.9c0.6-1.7,1.2-2.8,1.8-3.2c0.3-0.3,0.7-0.4,1.3-0.4
		c0.6,0,1,0.2,1.4,0.7c0.3,0.4,0.7,1.3,1.1,2.5c0.4,1.3,0.6,2,0.7,2c0.2,0,0.5-1.3,0.8-4c0.3-2.4,0.6-4.1,1-5.1
		c0.4-1,0.9-1.5,1.4-1.5c0.1,0,0.2,0,0.3,0c0.3,0.1,0.5,0.2,0.8,0.4c0.2,0.2,0.3,0.5,0.3,0.8c0,0,0,0.1,0,0.1c0,0,0,0.1,0,0.1
		c0,0.1-0.2,0.7-0.6,1.8c-0.3,1-0.6,2.3-0.8,4.1c-0.4,3-0.9,5-1.5,6.3c-0.2,0.4-0.4,0.7-0.6,0.9c-0.2,0.2-0.4,0.3-0.6,0.4
		c-0.2,0-0.3,0.1-0.4,0.1c-1.2,0-2.1-1.3-2.8-4c-0.3-1.2-0.5-1.8-0.5-1.8c-0.1,0-0.2,0.4-0.5,1.1s-0.6,1.5-1,2.4s-0.8,1.5-1,1.8
		c-0.3,0.3-0.5,0.4-0.8,0.4c-0.6,0-1-0.4-1.4-1.2c-0.4-0.8-0.7-2.1-1-3.9c-0.5-2.7-1-4.9-1.6-6.7c-0.1-0.4-0.2-0.8-0.2-1.3
		C335.9,292.9,336.1,292.4,336.3,292.2z"/>
</g>
<g class="st1">
	<path class="st3" d="M354,292.1c0.2-0.2,0.5-0.3,0.9-0.3c0.4,0,0.7,0.1,0.9,0.3c0.2,0.2,0.3,0.6,0.3,1v0.7l1-0.4
		c0.7-0.3,1.3-0.6,2-0.7c0.5-0.1,1.1-0.2,1.9-0.2c1.3,0,2.1,0.1,2.6,0.3c0.4,0.2,0.7,0.6,0.7,1.1c0,0.5-0.2,0.9-0.6,1.2
		c-0.2,0.1-0.4,0.1-0.6,0.1c-0.1,0-0.4,0-0.9-0.1c-0.3-0.1-0.7-0.1-1.2-0.1c-1.5,0-2.8,0.5-3.6,1.5c-0.4,0.5-0.7,0.9-0.8,1.3
		c-0.1,0.4-0.2,1.1-0.2,2c0,0.3,0,1,0.1,2.3c0,0.5,0,1.2,0,2.1c0,1.1,0,1.7-0.1,1.8c-0.2,0.2-0.4,0.3-0.7,0.4
		c-0.2,0.1-0.4,0.1-0.5,0.1c-0.6,0-1-0.4-1.3-1.2c-0.2-0.5-0.3-1.4-0.3-2.6c0-0.2,0-1.6,0.1-4.3c0-2.7,0.1-4.4,0.1-5.1
		C353.8,292.7,353.8,292.2,354,292.1z"/>
</g>
<g class="st1">
	<path class="st3" d="M366.4,287.1c0.3-0.3,0.7-0.4,1.4-0.4c0.3,0,0.6,0.1,0.8,0.2c0.4,0.3,0.6,0.8,0.6,1.4s-0.2,1.2-0.6,1.4
		c-0.2,0.1-0.4,0.2-0.8,0.2c-0.8,0-1.2-0.1-1.4-0.3c-0.2-0.2-0.3-0.6-0.3-1.2C366,287.8,366.1,287.4,366.4,287.1z M366.3,292.9
		c0.2-0.3,0.5-0.4,1-0.4h0c0.6,0,1,0.3,1.1,0.9c0.1,0.6,0.2,2.7,0.2,6.2c0,2.9,0,4.7,0,5.3s-0.1,1.1-0.3,1.3
		c-0.3,0.3-0.6,0.5-0.9,0.5c0,0,0,0-0.1,0c-0.4,0-0.7-0.2-0.9-0.5c-0.2-0.2-0.3-0.7-0.3-1.3c0-0.7,0-2.5,0-5.4
		C366,295.4,366.1,293.2,366.3,292.9z"/>
</g>
<g class="st1">
	<path class="st3" d="M374.8,283.6c0.2-0.2,0.5-0.3,0.8-0.3c0.5,0,0.8,0.1,1,0.4c0.2,0.2,0.3,0.6,0.3,1.1c0,0.3-0.1,1.3-0.2,2.9
		c-0.1,1.9-0.2,3.1-0.2,3.6c0,0.1,0.9,0.2,2.6,0.4c1.4,0.1,2.2,0.2,2.6,0.4c0.4,0.2,0.5,0.5,0.5,0.9c0,0.4-0.1,0.7-0.3,0.9
		s-0.5,0.4-1,0.4c-0.1,0-0.6,0-1.6-0.1c-1.7-0.1-2.6-0.1-2.7-0.2h-0.1c-0.1,0-0.2,0.1-0.3,0.3c-0.1,0.4-0.2,0.8-0.2,1.2
		c0,0.1,0,0.1,0,0.2c0.1,1.1,0.1,1.8,0.1,2c0,1.9,0.2,3.3,0.5,4.3c0.2,0.6,0.4,1.2,0.8,1.6c0.3,0.4,0.7,0.6,1.1,0.6
		c0.3,0,0.8-0.1,1.5-0.4c0.6-0.2,1.1-0.3,1.3-0.3c0.3,0,0.6,0.1,0.9,0.4c0.2,0.2,0.3,0.5,0.3,0.8c0,0.4-0.2,0.8-0.5,1
		c-0.3,0.3-0.9,0.6-1.7,0.8c-0.8,0.3-1.5,0.4-2.1,0.4h-0.1c-0.9,0-1.5-0.2-2-0.6c-0.5-0.4-1-1-1.4-1.9c-0.4-0.8-0.6-1.7-0.8-2.6
		c-0.2-1.2-0.3-2.6-0.3-4.3l-0.1-3.6l-1.5,0.1c-0.5,0-0.9,0.1-1.2,0.1c-0.8,0-1.3-0.2-1.4-0.7c-0.1-0.4-0.1-0.6-0.1-0.7
		c0-0.4,0.2-0.6,0.5-0.8s1-0.3,2-0.4c1.3-0.1,1.9-0.2,2.1-0.4c0.1-0.1,0.2-1.2,0.3-3.3c0.1-2,0.3-3.3,0.3-3.7
		S374.6,283.8,374.8,283.6z"/>
</g>
<g class="st1">
	<path class="st3" d="M388.3,283.6c0.2-0.2,0.5-0.3,0.8-0.3c0.5,0,0.8,0.1,1,0.4c0.2,0.2,0.3,0.6,0.3,1.1c0,0.3-0.1,1.3-0.2,2.9
		c-0.1,1.9-0.2,3.1-0.2,3.6c0,0.1,0.9,0.2,2.6,0.4c1.4,0.1,2.2,0.2,2.6,0.4c0.4,0.2,0.5,0.5,0.5,0.9c0,0.4-0.1,0.7-0.3,0.9
		s-0.5,0.4-1,0.4c-0.1,0-0.6,0-1.6-0.1c-1.7-0.1-2.6-0.1-2.7-0.2h-0.1c-0.1,0-0.2,0.1-0.3,0.3c-0.1,0.4-0.2,0.8-0.2,1.2
		c0,0.1,0,0.1,0,0.2c0.1,1.1,0.1,1.8,0.1,2c0,1.9,0.2,3.3,0.5,4.3c0.2,0.6,0.4,1.2,0.8,1.6c0.3,0.4,0.7,0.6,1.1,0.6
		c0.3,0,0.8-0.1,1.5-0.4c0.6-0.2,1.1-0.3,1.3-0.3c0.3,0,0.6,0.1,0.9,0.4c0.2,0.2,0.3,0.5,0.3,0.8c0,0.4-0.2,0.8-0.5,1
		c-0.3,0.3-0.9,0.6-1.7,0.8c-0.8,0.3-1.5,0.4-2.1,0.4h-0.1c-0.9,0-1.5-0.2-2-0.6c-0.5-0.4-1-1-1.4-1.9c-0.4-0.8-0.6-1.7-0.8-2.6
		c-0.2-1.2-0.3-2.6-0.3-4.3l-0.1-3.6l-1.5,0.1c-0.5,0-0.9,0.1-1.2,0.1c-0.8,0-1.3-0.2-1.4-0.7c-0.1-0.4-0.1-0.6-0.1-0.7
		c0-0.4,0.2-0.6,0.5-0.8s1-0.3,2-0.4c1.3-0.1,1.9-0.2,2.1-0.4c0.1-0.1,0.2-1.2,0.3-3.3c0.1-2,0.3-3.3,0.3-3.7
		S388.1,283.8,388.3,283.6z"/>
</g>
<g class="st1">
	<path class="st3" d="M398.3,294.8c1-2,2.5-3.1,4.4-3.1c0.8,0,1.6,0.2,2.6,0.5c2,0.8,2.9,1.9,2.9,3.3c0,0.5-0.1,1-0.4,1.5
		c-0.4,0.8-1.3,1.6-2.6,2.3c-1.3,0.7-2.7,1.1-4.1,1.2c-0.8,0.1-1.2,0.2-1.2,0.3c0,0.3,0.2,0.6,0.5,1.1c0.3,0.5,0.6,0.9,0.9,1.2
		c0.9,0.9,1.9,1.3,3.2,1.3c0.8,0,1.6-0.1,2.7-0.3c1-0.2,1.6-0.3,2-0.3c0.6,0,1,0.2,1.1,0.7c0,0.1,0,0.2,0,0.3c0,0.6-0.2,1-0.6,1.2
		c-0.3,0.1-1,0.3-2.3,0.5c-1.1,0.2-2.1,0.3-2.9,0.3c-1.3,0-2.3-0.2-3.1-0.6c-0.6-0.3-1.2-0.7-1.9-1.4c-0.7-0.7-1.1-1.3-1.4-1.9
		c-0.3-0.6-0.5-1.6-0.6-2.9c0-0.1,0-0.3,0-0.5c0-0.2,0-0.4,0-0.4C397.2,297.6,397.6,296.2,398.3,294.8z M404.8,294.8
		c-0.4-0.2-0.9-0.3-1.4-0.4h-0.3c-1.3,0-2.2,0.8-2.8,2.3c-0.2,0.6-0.3,0.9-0.3,1.1c0,0.2,0.2,0.3,0.6,0.3c0.2,0,0.4,0,0.6,0
		c1.1-0.1,2.1-0.4,3-1c0.9-0.5,1.3-1,1.3-1.5C405.3,295.2,405.2,295,404.8,294.8z"/>
</g>
<g class="st1">
	<path class="st3" d="M410.6,292.2c0.2-0.2,0.5-0.3,0.9-0.3c0,0,0,0,0.1,0c0.4,0,0.7,0.1,0.9,0.3c0.2,0.2,0.4,0.8,0.4,1.8
		c0.1,1,0.2,1.4,0.3,1.4c0.1,0,0.2-0.2,0.4-0.6c0.3-0.5,0.6-1,1.1-1.5c0.5-0.5,1-0.9,1.4-1.1c0.4-0.2,1-0.3,1.7-0.3
		c1.6,0,3,0.7,4.2,2c0.8,0.8,1.3,1.8,1.6,2.9c0.4,1.3,0.7,2.8,0.8,4.5c0.1,1.3,0.1,2.1,0.1,2.5c0,1.5-0.2,2.4-0.6,2.7
		c-0.2,0.2-0.5,0.3-0.8,0.3c-0.4,0-0.7-0.1-0.9-0.4c-0.1-0.1-0.2-0.4-0.3-0.7c0-0.3,0-1,0-2c0-1.3-0.1-2.6-0.3-3.8
		c-0.2-1.5-0.7-2.8-1.4-3.9c-0.7-1-1.5-1.6-2.3-1.6c-0.4,0-0.8,0.1-1.2,0.4c-1.5,1.3-2.3,4-2.4,8.3c0,1.7-0.1,2.7-0.3,3.1
		c-0.1,0.4-0.4,0.6-0.9,0.6c-0.7,0-1.1-0.3-1.3-0.8c-0.2-0.7-0.4-2-0.5-4.1c-0.1-1-0.2-2.4-0.4-4.1c-0.3-2.2-0.4-3.5-0.4-3.8
		c0-0.7-0.1-1-0.1-1.1C410.4,292.6,410.5,292.4,410.6,292.2z"/>
</g>
<g class="st1">
	<path class="st3" d="M443.5,310l-0.3-2.6c0-0.1,0-0.2,0-0.3c0-1-0.1-1.9-0.3-2.9c-0.1-0.4-0.1-0.5-0.1-0.5h-1.1h-0.1
		c0,0-0.1,0-0.1,0c-0.7,0-1.2-0.1-1.5-0.3c-0.4-0.2-0.5-0.6-0.5-1.1c0-0.6,0.2-1,0.5-1.2c0.6-0.2,1.1-0.3,1.6-0.3h1v-1.4
		c0-1.4,0.3-2.8,1-4.1c0.3-0.6,0.8-1.3,1.5-1.9c0.6-0.6,1.3-1,2-1.2c0.8-0.2,1.6-0.4,2.4-0.4c0.1,0,0.1,0,0.2,0
		c0.8,0,1.4,0.2,1.8,0.4c0.3,0.2,0.4,0.5,0.4,0.9c0,0.2-0.1,0.5-0.2,0.8c0,0.3-0.2,0.5-0.6,0.6c-0.2,0.1-0.6,0.1-1.1,0.1
		c-1.2,0-2.1,0.3-2.8,0.8c-0.7,0.5-1.2,1.5-1.4,2.9c-0.1,0.7-0.2,1.3-0.2,1.6c0,0,0,0.1,0,0.1l0,0.8l1.6,0.1c0.5,0,0.8,0,0.9,0
		c0.6,0,1.5-0.1,2.6-0.3c0.1,0,0.3,0,0.6,0c0.3,0,0.6,0.1,0.9,0.3c0.3,0.2,0.4,0.6,0.4,1.2c0,0.6-0.1,0.9-0.3,0.9
		c-1.2,0.3-1.9,0.4-2,0.4c-0.7,0.1-1.5,0.2-2.6,0.2c-0.1,0-0.2,0-0.3,0h-1.8l0.1,0.4v0c0,0.7,0.1,1.5,0.2,2.5
		c0.1,0.8,0.2,1.6,0.3,2.3c0.3,1.5,0.4,2.5,0.4,2.8c0,0.3-0.1,0.6-0.2,0.8c-0.3,0.5-0.8,0.7-1.3,0.7c-0.6,0-0.9-0.2-1.1-0.7h0
		L443.5,310z"/>
</g>
<g class="st1">
	<path class="st3" d="M458.8,292.2c0.4-0.2,0.9-0.3,1.5-0.3c0.8,0,1.4,0.1,1.7,0.4l1.7,0.8c1.2,0.6,2.1,1.5,2.8,2.6
		c0.7,1.1,1,2.7,1,4.5c0,0.7-0.1,1.3-0.3,1.9c-0.5,1.5-1.2,2.6-2.3,3.4c-1.1,0.8-2.4,1.2-3.8,1.2c0,0-0.1,0-0.1,0
		c-1.5,0-2.8-0.4-4-1.1s-2.1-1.8-2.8-3.1c-0.4-0.8-0.6-1.7-0.6-2.6v-1.4c0-1,0.2-1.8,0.5-2.5c0.3-0.6,0.8-1.3,1.6-2
		c0.6-0.6,1.1-1,1.5-1.3C457.5,292.7,458,292.4,458.8,292.2z M461.1,295.1c-0.6-0.1-1-0.2-1-0.2c-0.1,0-0.2,0-0.4,0
		c-0.9,0-1.7,0.4-2.4,1.2c-0.7,0.8-1.1,1.7-1.1,2.6c0,1.3,0.1,2.2,0.3,2.6c0.3,0.8,0.9,1.5,1.9,2.1s1.8,0.9,2.7,0.9
		c1,0,2-0.4,2.8-1.3c0.8-0.9,1.2-2,1.2-3.3c0-1.3-0.4-2.4-1.1-3.2S462.2,295.3,461.1,295.1z"/>
</g>
<g class="st1">
	<path class="st3" d="M469.1,292.2c0.2-0.2,0.5-0.3,0.9-0.3c0,0,0,0,0.1,0c0.4,0,0.7,0.1,0.9,0.3c0.2,0.2,0.4,0.8,0.4,1.8
		c0.1,1,0.2,1.4,0.3,1.4s0.2-0.2,0.4-0.6c0.3-0.5,0.6-1,1.1-1.5c0.5-0.5,1-0.9,1.4-1.1c0.4-0.2,1-0.3,1.7-0.3c1.6,0,3,0.7,4.2,2
		c0.8,0.8,1.3,1.8,1.6,2.9c0.4,1.3,0.7,2.8,0.8,4.5c0.1,1.3,0.1,2.1,0.1,2.5c0,1.5-0.2,2.4-0.6,2.7c-0.2,0.2-0.5,0.3-0.8,0.3
		c-0.4,0-0.7-0.1-0.9-0.4c-0.1-0.1-0.2-0.4-0.3-0.7c0-0.3,0-1,0-2c0-1.3-0.1-2.6-0.3-3.8c-0.2-1.5-0.7-2.8-1.4-3.9
		c-0.7-1-1.5-1.6-2.3-1.6c-0.4,0-0.8,0.1-1.2,0.4c-1.5,1.3-2.3,4-2.4,8.3c0,1.7-0.1,2.7-0.3,3.1c-0.1,0.4-0.4,0.6-0.9,0.6
		c-0.7,0-1.1-0.3-1.3-0.8c-0.2-0.7-0.4-2-0.5-4.1c-0.1-1-0.2-2.4-0.4-4.1c-0.3-2.2-0.4-3.5-0.4-3.8c0-0.7-0.1-1-0.1-1.1
		C468.9,292.6,469,292.4,469.1,292.2z"/>
</g>
<g class="st1">
	<path class="st3" d="M487.8,283.6c0.2-0.2,0.5-0.3,0.8-0.3c0.5,0,0.8,0.1,1,0.4c0.2,0.2,0.3,0.6,0.3,1.1c0,0.3-0.1,1.3-0.2,2.9
		c-0.1,1.9-0.2,3.1-0.2,3.6c0,0.1,0.9,0.2,2.6,0.4c1.4,0.1,2.2,0.2,2.6,0.4c0.4,0.2,0.5,0.5,0.5,0.9c0,0.4-0.1,0.7-0.3,0.9
		s-0.5,0.4-1,0.4c-0.1,0-0.6,0-1.6-0.1c-1.7-0.1-2.6-0.1-2.7-0.2h-0.1c-0.1,0-0.2,0.1-0.3,0.3c-0.1,0.4-0.2,0.8-0.2,1.2
		c0,0.1,0,0.1,0,0.2c0.1,1.1,0.1,1.8,0.1,2c0,1.9,0.2,3.3,0.5,4.3c0.2,0.6,0.4,1.2,0.8,1.6c0.3,0.4,0.7,0.6,1.1,0.6
		c0.3,0,0.8-0.1,1.5-0.4c0.6-0.2,1.1-0.3,1.3-0.3c0.3,0,0.6,0.1,0.9,0.4c0.2,0.2,0.3,0.5,0.3,0.8c0,0.4-0.2,0.8-0.5,1
		c-0.3,0.3-0.9,0.6-1.7,0.8c-0.8,0.3-1.5,0.4-2.1,0.4h-0.1c-0.9,0-1.5-0.2-2-0.6c-0.5-0.4-1-1-1.4-1.9c-0.4-0.8-0.6-1.7-0.8-2.6
		c-0.2-1.2-0.3-2.6-0.3-4.3l-0.1-3.6l-1.5,0.1c-0.5,0-0.9,0.1-1.2,0.1c-0.8,0-1.3-0.2-1.4-0.7c-0.1-0.4-0.1-0.6-0.1-0.7
		c0-0.4,0.2-0.6,0.5-0.8s1-0.3,2-0.4c1.3-0.1,1.9-0.2,2.1-0.4c0.1-0.1,0.2-1.2,0.3-3.3c0.1-2,0.3-3.3,0.3-3.7
		S487.6,283.8,487.8,283.6z"/>
</g>
<g class="st1">
	<path class="st3" d="M498.1,303.3c0.3-0.7,0.9-1.1,1.6-1.1c0.3,0,0.6,0.1,0.9,0.2c0.9,0.4,1.4,1.1,1.4,2.1c0,0.4,0,0.6-0.1,0.8
		c-0.1,0.2-0.2,0.4-0.5,0.7c-0.4,0.4-0.8,0.6-1.3,0.6c-0.7,0-1.3-0.2-1.7-0.5c-0.4-0.4-0.6-0.8-0.6-1.4
		C497.7,304.3,497.9,303.9,498.1,303.3z"/>
</g>
<polygon class="st4" points="790,210 790,390 600,390 600,395 444,395 444,390 434,390 434,395 429,395 429,390 419,390 419,395 
	10,395 10,310 5,310 5,235 0,235 0,310 0,400 10,400 419,400 429,400 434,400 444,400 600,400 800,400 800,390 800,210 "/>
<polygon class="st4" points="381,0 371,0 366,0 356,0 200,0 0,0 0,10 0,190 10,190 10,10 200,10 200,5 356,5 356,10 366,10 366,5 
	371,5 371,10 381,10 381,5 790,5 790,95 795,95 795,170 800,170 800,95 800,5 800,0 "/>
<polygon class="st5" points="710.7,310.7 723.3,357.5 757.5,323.3 "/>
<polygon class="st6" points="88.8,88.8 76.2,42 42,76.2 "/>
</svg>
