<svg xmlns="http://www.w3.org/2000/svg" xmlns:xlink="http://www.w3.org/1999/xlink" viewBox="0 0 800 400"><defs><style>.a{fill:url(#a);}.b{font-size:160px;}.af,.ag,.ah,.b{fill:#e6f0ff;}.b,.h{font-family:sagesans-Regular, sage sans;}.c{letter-spacing:-0.0383em;}.d{letter-spacing:-0.0255em;}.e{letter-spacing:-0.0191em;}.f{letter-spacing:-0.0121em;}.g{letter-spacing:-0.028em;}.h{font-size:32px;fill:#d7e7ff;}.i{letter-spacing:-0.02811em;}.j{letter-spacing:-0.00339em;}.k{letter-spacing:-0.0184em;}.l{letter-spacing:-0.05em;}.m{letter-spacing:-0.037em;}.n{letter-spacing:-0.02609em;}.o{letter-spacing:-0.01091em;}.p{letter-spacing:-0.03589em;}.q{letter-spacing:-0.02551em;}.r{letter-spacing:-0.0609em;}.s{letter-spacing:-0.0266em;}.t{letter-spacing:-0.0034em;}.u{letter-spacing:-0.0294em;}.v{letter-spacing:-0.03029em;}.w{letter-spacing:-0.01831em;}.x{letter-spacing:0.004em;}.y{letter-spacing:0.01289em;}.z{letter-spacing:-0.0434em;}.aa{letter-spacing:-0.01649em;}.ab{letter-spacing:-0.0134em;}.ac{letter-spacing:-0.0061em;}.ad{letter-spacing:-0.0209em;}.ae{letter-spacing:-0.02051em;}.af{opacity:0.5;}.ag{opacity:0.1;}.ah{opacity:0.25;}</style><radialGradient id="a" cx="400" cy="200" r="316.22777" gradientUnits="userSpaceOnUse"><stop offset="0" stop-color="#14345a"/><stop offset="1" stop-color="#001c49"/></radialGradient></defs><title>sagesans</title><rect class="a" width="800" height="400"/><text class="b" transform="translate(99.6228 199.92188)"><tspan class="c">s</tspan><tspan class="d" x="56.99707" y="0">a</tspan><tspan class="e" x="129.16699" y="0">g</tspan><tspan x="192.98633" y="0">e </tspan><tspan class="c" x="328.92383" y="0">s</tspan><tspan class="f" x="385.9209" y="0">a</tspan><tspan class="g" x="460.23438" y="0">n</tspan><tspan x="537.62988" y="0">s</tspan></text><text class="h" transform="translate(100 307)">a <tspan class="i" x="28.375" y="0">s</tspan><tspan class="j" x="40.10059" y="0">a</tspan><tspan class="k" x="55.24219" y="0">n</tspan><tspan class="l" x="71.02832" y="0">s</tspan><tspan class="m" x="82.05322" y="0">-</tspan><tspan class="n" x="95.61914" y="0">s</tspan><tspan class="o" x="107.40918" y="0">e</tspan><tspan class="p" x="121.12256" y="0">r</tspan><tspan class="q" x="133.59912" y="0">i</tspan><tspan class="r" x="138.90771" y="0">f</tspan><tspan x="151.58398" y="0">, </tspan><tspan class="s" x="174.14648" y="0">h</tspan><tspan class="t" x="188.10791" y="0">a</tspan><tspan class="u" x="203.24902" y="0">n</tspan><tspan class="v" x="218.68311" y="0">d</tspan><tspan class="w" x="235.18262" y="0">w</tspan><tspan class="p" x="252.03418" y="0">r</tspan><tspan class="x" x="264.51074" y="0">i</tspan><tspan class="y" x="270.76367" y="0">t</tspan><tspan class="z" x="284.30127" y="0">t</tspan><tspan class="aa" x="296.0376" y="0">e</tspan><tspan x="309.57227" y="0">n </tspan><tspan class="ab" x="339.07227" y="0">f</tspan><tspan class="ac" x="353.26855" y="0">o</tspan><tspan class="ad" x="368.07324" y="0">n</tspan><tspan class="ae" x="383.7793" y="0">t</tspan><tspan x="396.24805" y="0">.</tspan></text><polygon class="af" points="790 210 790 390 600 390 600 395 444 395 444 390 434 390 434 395 429 395 429 390 419 390 419 395 10 395 10 310 5 310 5 235 0 235 0 310 0 400 10 400 419 400 429 400 434 400 444 400 600 400 800 400 800 390 800 210 790 210"/><polygon class="af" points="381 0 371 0 366 0 356 0 200 0 0 0 0 10 0 190 10 190 10 10 200 10 200 5 356 5 356 10 366 10 366 5 371 5 371 10 381 10 381 5 790 5 790 95 795 95 795 170 800 170 800 95 800 5 800 0 381 0"/><polygon class="ag" points="710.701 310.701 723.253 357.546 757.546 323.253 710.701 310.701"/><polygon class="ah" points="88.799 88.799 76.247 41.954 41.954 76.247 88.799 88.799"/></svg>