<?xml version="1.0" encoding="utf-8"?>
<!-- Generator: Adobe Illustrator 21.1.0, SVG Export Plug-In . SVG Version: 6.00 Build 0)  -->
<svg version="1.1" id="Layer_1" xmlns="http://www.w3.org/2000/svg" xmlns:xlink="http://www.w3.org/1999/xlink" x="0px" y="0px"
	 viewBox="0 0 360 360" style="enable-background:new 0 0 360 360;" xml:space="preserve">
<style type="text/css">
	.st0{fill:#E3E3E3;}
	.st1{opacity:0.85;fill:#EABA21;}
	.st2{fill:#443703;}
</style>
<g>
	<g>
		<path class="st0" d="M306.1,173.9c-0.5-19-1-38-1.6-57c-0.6-23,2.5-50.7-19.9-64.4C259.1,36.8,101.5,44.8,86,47.4
			c-19.5,3.3-30.7,20.5-32.8,39.1c-0.9,8-0.5,16.1-0.3,24.1c0.6,25-0.4,50,0.1,75c0.1,4.1,0.2,8.3,0.3,12.4
			c0.7,19.1-0.2,46.7,19.1,57.8c8.2,4.7,17.5,6.7,26.8,7.3c5.5,0.4,11.1,0.1,16.6,0.2c10.4,0,20.8,0.1,31.2,0.1
			c-1,8.5-1.3,17-0.8,25.6c-0.1-0.6-14.5-0.1-15.7-0.1c-6.8,0-13.4-1.2-20.1-2.2c-5.1-0.8-13.8-3.3-18.4,0
			c-5.9,4.2-2.9,13.3-2.8,19.3c0,0.7,0.2,1.3,0.4,1.8c0.1,1.5,0.3,3.1,0.5,4.6c0.1,1.4,0.9,2.4,1.9,3.1c1.7-0.3,3.5-0.3,5.4-0.3
			c3.3,0.1,6.6,0.6,10,1.1c0.3,0,0.6,0,0.9,0c0.1,0,0.2-0.1,0.3-0.1c3-0.1,6.1-0.2,9.1-0.3c6.4,0.3,12.6,0.3,18.8-0.1
			c5.3,1.2,11.5,1,17,0.6c8.9,0,17.7-0.1,26.6-0.1c0.5,0,0.9,0.1,1.4,0.1c0.1,0,0.1,0,0.2,0c4.1,0.5,8.2,0.5,12.4,0.2
			c1.7,0.2,3.3,0.4,5,0.4c6.8,0,13.7-0.1,20.5-0.3c0.1,0,0.1,0,0.2,0c1.9-0.1,3.9-0.1,5.8-0.2c0.2,0,0.4,0.1,0.6,0.1
			c0.4,0,0.7,0,1.1,0c10.2-0.4,20.4-0.6,30.6-0.2c0.6,0.2,1.2,0.2,1.9,0.1c0.2,0,0.4,0,0.7,0c0,0,0-0.1,0.1-0.1
			c1.5-0.5,2.8-1.7,3-3.7c0.6-5.7,0.9-11.5,1.9-17.2c2.2-12.7-10.5-9.7-16.8-8.2c-2.4,0.6-7.4,0.5-12.7,1.2
			c-10.9,1.3-23.9,1.3-24,0.4c-0.6-8.2-0.4-16.4,0.7-24.6c18.5,0.1,36.5-0.1,49.5-1.1c23.8-1.9,39.2-19.6,43.8-43.5
			C308.7,204.9,306.5,188.6,306.1,173.9z M181.4,207.9c-2,0-3.9,0-5.9,0.1c-34.9,0-69.7-0.1-104.6-0.3c-0.1-1.3-0.2-2.5-0.2-3.2
			c-0.6-26.3-1.3-52.6-1.9-78.9C68.4,109,67.5,94.2,72,78.3c1.3-4.6,6.4-14.4,16.1-14.9c42.7-1.9,85.4-1.6,128.2-1.4
			c18,0.1,35.9,0.9,53.5,4.7c5.7,1.2,11,3.7,13.7,9.2c2.9,5.9,2.4,13.2,2.7,19.6c0.4,7.9,0.8,15.7,1.1,23.6
			c0,19.7,1.9,39.7,2.9,59.4c0.5,9.7,0.9,19.4,2,29.1c0.1,0.5,0,1.4,0,2.5C255.3,208.6,218.3,207.9,181.4,207.9z M287.2,239.9
			c-7.7,8.9-18.5,13.2-29.8,15.5c-8.6,1.8-144.5-0.9-154.1-1.4c-9.2-0.4-16.9-2.6-25-6.6c-7.3-4.1-11.4-10.4-14-18.2
			c-1.2-4.2-1.9-8.7-2.3-13.3c1.8,0,3.6,0,5.4,0c0.7,0,1.4,0,2,0.1c0.1,0,0.2,0,0.2,0c31.5,0.2,62.9,0.3,94.4,0.3c0,0,0,0,0,0
			c0.2,0,0.4,0,0.6,0c5.3,0,10.5,0,15.8,0c0.2,0,0.3,0,0.5,0c38.9,0,77.8,0.8,116.6,2.4c0.1,0,0.1,0,0.2,0
			C295.9,226.3,292.4,233.8,287.2,239.9z"/>
		<path class="st0" d="M179,227c-10.6,0-10.6,16.4,0,16.4C189.6,243.4,189.6,227,179,227z"/>
	</g>
	<g>
		<path class="st1" d="M224.1,111.8c-0.5-2.3-1.4-4.5-2.1-6.8c-0.8-2.3-1.5-4.8-0.9-7.2c0.6-2.2,2-4.1,2.1-6.5c0.1-2-0.7-4.2-2.6-5
			c-2.5-1.1-5,0.8-6.6,2.6c-0.8,1-1.6,2.1-2.1,3.3c-0.2,0.6-0.6,1.2-0.5,1.8c0,0.3,0.3,0.9,0.7,0.9c1,0,1.3-0.8,1.9-1.6
			c0.7-0.9,1.3-1.7,2-2.5c0.7-0.8,2.7-2.8,3.8-1.6c1,1.1,0.4,2.9-0.1,4.1c-0.9,2.1-1.7,4-1.7,6.3c0,4.4,2.3,8.4,3.3,12.5
			c0.9,3.8,1.1,7.8,0.6,11.6c-0.3,2.1-0.8,4.2-1.5,6.3c-0.4,1-0.8,2-1.2,2.9c-0.5,1-0.9,2.1-1.1,3.2c0,0.2-0.1,0.3,0,0.5
			c0.1,0.2,0.3,0.4,0.6,0.4c1,0.1,1.8-1.2,2.3-1.9c0.8-1.1,1.4-2.4,1.9-3.7c0.8-2,1.3-4.2,1.7-6.4
			C225.3,120.8,225.1,116.2,224.1,111.8z"/>
		<path class="st1" d="M207.6,95.9c-4.9,1.5-10.5,0.6-15.8,0.7c-5.9,0-11.4,1.3-16.8,2.8c-5.5,1.6-10.9,3.3-15.7,6.2
			c-4.4,2.7-8,6.4-10.8,10.9c-1.4,2.2-2.5,4.6-3.5,7.1c-0.5,1.4-1.2,2.7-1.5,4.1c-0.4,1.8-0.7,3.7-0.5,5.5c0,0.3,0.1,0.6,0.2,0.8
			c0.5,0.7,1,0.1,1.3-0.4c1.6-3.2,2.5-6.7,4-10c2-4.5,4.6-8.5,8.1-11.7c3.9-3.6,8.7-5.8,13.7-7.6c5-1.8,10.3-3.4,15.7-4.3
			c5.1-0.9,10.4-0.5,15.6-0.9c2.4-0.2,4.8-0.6,6.9-1.6C209.3,97.1,208.5,95.6,207.6,95.9z"/>
		<path class="st1" d="M206.6,160.5c-0.4-0.4-0.7-0.4-1.2-0.2c-2.2,1-3.8,2.8-5.4,4.5c-1.7,1.8-3.7,3.4-5.7,4.9
			c-4.3,3.3-9,6.1-13.9,8.4c-4.4,2-9.1,3.6-14.4,3c-4.5-0.5-9.1-2.1-13.5-1.8c-2.4,0.2-4.4,1.1-6.1,2.5c-1.6,1.3-3.4,3.4-6,2.3
			c-2.4-1-1.4-3.5-0.8-4.9c1.1-2.5,2.2-5,3.1-7.7c1.3-4,1.4-8.3,1.4-12.5c0-2.2-0.2-4.5-1-6.6c-0.3-0.9-1-1.4-1.4-0.3
			c-0.3,0.6-0.4,1.4-0.4,2.1c-0.1,1-0.1,2.1-0.1,3.1c0,0.6,0,1.3,0,1.9c0,2.1,0,4.2-0.3,6.3c-0.4,2.9-1.3,5.6-2.4,8.1
			c-1,2.3-2.5,4.6-2.6,7.3c-0.1,2.9,2,5.5,4.8,6.2c2.9,0.8,5.1-0.7,7-2.3c1.8-1.5,3.5-2.5,6-2.7c2.2-0.1,4.6,0.3,6.9,0.8
			c2.4,0.5,4.7,1,7.1,1.1c2.8,0.2,5.5-0.2,8-0.8c5.4-1.5,10.3-4.1,15-6.9c3.3-2.1,6.5-4.3,9.5-6.9c1.4-1.2,2.8-2.6,4.1-4
			c0.1-0.2,0.4-0.5,0.8-1C205.7,163.2,207.2,161,206.6,160.5z"/>
		<g>
			<path class="st2" d="M132.1,145.1c0-2.2,0-4.4,0-6.7c0-2.2-0.1-4.3-0.1-6.5c0-1-0.1-2.1-0.1-3.1c0-1.1,0-2.3-0.4-3.3
				c-0.3-0.7-1.2-0.6-1.3,0.1c-0.1,0.3-0.2,0.5-0.2,0.8c-0.1,0.2-0.2,0.5-0.2,0.5c0,0.1,0,0.2,0.1,0.3c0,0.5-0.1,1-0.1,1.5
				c0,1-0.1,2.1-0.1,3.1c-0.1,2.2-0.1,4.4-0.1,6.7c0,2.2,0,4.3,0,6.5c0,2-0.3,4.5,0.5,6.4c0.3,0.6,1.4,0.6,1.7,0
				C132.4,149.5,132.1,147.1,132.1,145.1z"/>
			<path class="st2" d="M144.3,137.2c-1.1-0.7-2.5-0.4-3.6,0.1c-2.3,1.1-4.4,3.2-5.8,5.3c-1.3,2-2.5,5.5-0.1,7.3
				c2.3,1.7,5.2-0.7,6.8-2.3c0.8-0.8,1.6-1.8,2.1-2.8c0,0.4,0,0.7,0,1.1c0.1,1.2-0.1,2.7,1.3,3.1c0.3,0.1,0.5-0.2,0.4-0.5
				c-0.3-0.3-0.1-1-0.1-1.4c0-0.8,0.1-1.6,0.1-2.4c0-1.5,0-3.1,0-4.6c0.1,0,0.3-0.2,0.3-0.4C145.9,138.7,145.2,137.7,144.3,137.2z
				 M140.9,145.9c-0.9,0.9-5,4.2-5.3,1.2c-0.2-2.2,1.9-4.6,3.4-6c0.9-0.8,1.8-1.6,2.9-2.1c0.8-0.3,1.9-0.4,2.6,0.1
				c-0.3,0.1-0.6,0.3-0.6,0.7C143.6,142.1,142.5,144.2,140.9,145.9z"/>
			<path class="st2" d="M156.5,151c0-1.3-0.1-2.5-0.1-3.8c0-1.6-0.1-3.2-0.1-4.8c0.1-1.1,0-2.2-0.1-3.2c0-0.8-1.3-0.8-1.3,0
				c0,0.8,0,1.6,0,2.3c-0.1,1-0.3,2-0.8,2.8c-0.7,1.1-1.8,2-3.1,1.8c-1.7-0.3-1.4-2-1.3-3.3c0-0.6,0.4-4-1-3.7c-1,0.2-0.9,1.8-1,2.6
				c-0.1,1.1-0.3,2.3-0.2,3.5c0.2,1.9,1.8,3.2,3.7,3.3c1.5,0.1,2.9-0.7,3.8-1.9c0,2,0,3.9-0.1,5.9c-0.1,1.9-0.8,3.5-2.4,4.4
				c-0.8,0.5-1.7,0.8-2.6,1c-1,0.2-2,0.1-3,0.3c-0.6,0.2-0.8,1.2-0.2,1.5c1.9,0.8,4.6,0.4,6.4-0.6c1.7-0.9,3.1-2.7,3.4-4.6
				C156.7,153.3,156.6,152.1,156.5,151z"/>
			<path class="st2" d="M184,142.6c-0.4-1.9-1.7-3.3-3.4-4c0.2-0.1,0.2-0.5-0.1-0.6c-1.2-0.4-2.1-0.3-3.1,0.4
				c-1,0.7-1.7,1.7-2.3,2.7c-1.1,2-2.6,4.9-0.5,6.8c1.7,1.6,4.7,1.5,6.6,0.4C183.3,147.3,184.5,144.9,184,142.6z M178.9,147.1
				c-0.9,0.2-2.3,0.1-3-0.6c-0.8-0.8-0.2-2.3,0.2-3.2c0.6-1.5,1.5-3.2,2.9-4.1c1.2,1,2.6,2.1,3,3.6
				C182.6,144.9,180.9,146.8,178.9,147.1z"/>
			<path class="st2" d="M195,141.3c-0.4-2.2-1.7-3.9-4.1-4c-1.4,0-2.6,0.5-3.5,1.4c0-0.2,0-0.3-0.1-0.5c-0.1-0.4-0.7-0.4-0.8,0
				c-0.2,0.7-0.2,1.4-0.3,2.2c0,0.1-0.1,0.1-0.1,0.2c-1.1,2.4-0.7,5.1-0.2,7.6c0.2,0.9,1.6,0.7,1.6-0.2c0-1.7,0-3.4,0-5
				c0-0.5,0-1,0-1.5c0.6-1.4,1.9-2.7,3.5-2.5c2,0.2,2.3,2.2,2.4,3.8c0.2,2.1,0.2,4.3,0.3,6.4c0,0.5,0.7,0.6,0.8,0.1
				C195.6,146.7,195.5,143.9,195,141.3z"/>
			<path class="st2" d="M207.4,145.3c0-1.6-0.1-3.1-0.1-4.7c0-0.5-0.7-0.8-1.1-0.6c0,0,0-0.1-0.1-0.1c-0.5-0.5-0.8-0.9-1.5-1.1
				c-0.5-0.2-1.1-0.3-1.7-0.3c-1.3,0-2.6,0.4-3.6,1.1c-2.1,1.6-3,4.8-2.3,7.3c0.3,1.2,1.1,2.3,2.3,2.6c1.4,0.4,2.7-0.3,3.7-1.2
				c1.1-1,2.1-2.1,2.8-3.4c0,0.1,0,0.3,0,0.4c0,1.2-0.2,2.9,0.6,3.9c0.1,0.1,0.4,0.2,0.5,0C207.7,148.2,207.4,146.5,207.4,145.3z
				 M203.2,146.1c-0.7,0.7-1.5,1.6-2.5,1.8c-1.1,0.2-1.7-0.6-2-1.6c-0.5-1.8,0.1-3.9,1.4-5.2c1.4-1.3,3.8-1.7,5.4-0.6
				c0.1,0.1,0.2,0.1,0.2,0.1C205.5,142.7,204.6,144.5,203.2,146.1z"/>
			<path class="st2" d="M219,149.9c-0.1-2.7-0.1-5.5-0.1-8.2c0-0.2,0-0.4,0-0.6c0-0.3-0.2-0.5-0.4-0.6c-0.4-1.2-1.2-2.2-2.5-2.6
				c-2.5-0.7-4.7,1.8-5.8,3.8c-1.2,2.2-1.8,4.9-0.1,7c1.5,1.9,4,2,5.8,0.4c0.6-0.6,1.2-1.2,1.6-2c0,0.3,0,0.6,0,0.9
				c0,2.1,0.2,4.5-0.4,6.5c-0.6,1.8-2.5,2.5-4.2,2.9c-1.7,0.4-3.1,0.4-4.7-0.5c-0.3-0.2-0.8,0.1-0.7,0.5c0.7,1.8,2.9,2.4,4.7,2.3
				c2.1-0.1,4.5-1,5.8-2.7C219.5,155,219,152.2,219,149.9z M215.2,147.7c-0.7,0.7-1.8,1.2-2.8,0.8c-0.9-0.4-1.5-1.4-1.7-2.4
				c-0.3-2.2,1.3-5,3.1-6.2c0.9-0.6,2-0.7,2.8,0.1c0.4,0.4,0.7,0.9,0.9,1.5c0,0.3,0,0.7,0,1C217.4,144.5,216.7,146.5,215.2,147.7z"
				/>
			<path class="st2" d="M171.6,143c-0.2-1.4-0.2-3.6-1.8-4.1c-1.7-0.5-3,1.3-3.8,2.5c-0.1,0.2-0.2,0.4-0.4,0.6c0-0.5-0.1-1-0.2-1.4
				c-0.2-1.6-1.4-3-3.2-2.3c-0.9,0.3-1.5,1.2-2,2.1c-0.1-0.8-0.3-1.7-0.4-2.5c-0.2-0.8-1.3-0.6-1.3,0.2c-0.1,3.4,0.3,6.9,0.6,10.3
				c0.1,1.2,2,1.3,2,0c0-1.4,0-2.7,0.1-4.1c0.1-1.2,0.4-2.8,1.2-3.8c0.3-0.4,0.9-0.8,1.1-0.1c0.2,0.6,0.2,1.3,0.2,2
				c0.1,1.5,0.1,3,0,4.4c0,1,1.6,1.3,1.8,0.2c0.2-1.4,0.7-2.7,1.3-3.9c0.3-0.5,1.6-3.2,2.5-2.6c0.4,0.2,0.4,1.2,0.4,1.6
				c0.1,0.7,0.2,1.5,0.2,2.3c0.1,1.5-0.1,3.2,0.5,4.6c0.1,0.2,0.5,0.4,0.6,0.1C172.2,147.2,171.8,144.8,171.6,143z"/>
			<path class="st2" d="M230,145c-1.6,0.9-3.6,1.8-5.5,1.9c-1.6,0.1-2.1-1-2.1-2.2c1.2,0.2,2.5-0.5,3.5-1.2c1.1-0.7,2-1.8,2-3.2
				c0-1.4-0.9-2.5-2.3-2.8c-1.4-0.2-2.7,0.5-3.6,1.6c-1,1.3-1.4,3.1-1.6,4.7c-0.2,1.6-0.1,3.3,1.3,4.4c2.7,2.1,7.1-0.2,8.8-2.6
				C230.8,145.2,230.4,144.8,230,145z M222.8,142.5c0.2-0.8,0.4-1.6,0.9-2.2c0.5-0.6,1.8-1.4,2.5-0.4c1.1,1.6-2,3.7-3.6,3.9
				C222.6,143.3,222.7,142.9,222.8,142.5z"/>
		</g>
	</g>
	<path class="st1" d="M155.8,310.9c-0.1,0-0.1,0.2,0,0.2C155.9,311.1,155.9,310.9,155.8,310.9z"/>
</g>
</svg>
