<?xml version="1.0" encoding="utf-8"?>
<!-- Generator: Adobe Illustrator 21.1.0, SVG Export Plug-In . SVG Version: 6.00 Build 0)  -->
<svg version="1.1" id="Layer_1" xmlns="http://www.w3.org/2000/svg" xmlns:xlink="http://www.w3.org/1999/xlink" x="0px" y="0px"
	 viewBox="0 0 1280 1280" style="enable-background:new 0 0 1280 1280;" xml:space="preserve">
<style type="text/css">
	.st0{fill:#999999;}
</style>
<path class="st0" d="M646.5,101c-2.7,140.4-0.6,281.2,1.9,421.6c2.5,140,6.4,280,11.8,419.9c3,78.9,6.1,158,12.5,236.6
	c0.1,1.3,1.9,1.1,1.9-0.1c-0.9-70.2-4.3-140.5-6.5-210.7c-2.3-70.2-4.7-140.4-6.9-210.6c-4.3-139.9-7.3-279.9-9.5-419.9
	c-1.2-79-1.6-158-3.3-236.9C648.4,99.6,646.6,99.8,646.5,101z"/>
<g>
	<g>
		<g>
			<path class="st0" d="M945.1,421.2c-17.5,0.7-35.6,4.5-47,18.7c-3.6,4.4-7.1,8-11.3,11.8c-2.3,2.1-7.6,5.1-8.7,8.2
				c-0.5,1.3,1,2.8,2.3,2.3c7.4-2.6,14.8-4.7,22.3-6.8c-0.7-1-1.5-1.9-2.2-2.9c-16.2,22.7-40.5,36.4-59.4,56.3
				c-1.5,1.6-0.3,3.9,1.7,4.1c10.1,0.9,19.7-2.6,26.9-9.6c-1.3-0.8-2.6-1.5-4-2.3c-7.9,28.8-26.7,53.9-52,69.8c-1.6,1-1.6,4,0.6,4.4
				c15.1,2.3,29.7-2.1,42.6-9.9c13.3-8.1,26.2-17.5,37.3-28.5c2.2-2.2-1.2-5.5-3.4-3.4c-10.1,10-21.6,18.5-33.6,26.1
				c-12.5,7.9-26.7,13.3-41.7,11.1c0.2,1.5,0.4,2.9,0.6,4.4c26.5-16.5,45.8-42.5,54.2-72.6c0.6-2.3-2.3-3.9-4-2.3
				c-6.4,6.2-14.7,9-23.6,8.1c0.6,1.4,1.1,2.8,1.7,4.1c9.8-10.2,20.9-18.8,31.8-27.8c10.7-8.8,19.9-18.5,27.6-30
				c0.9-1.4-0.6-3.4-2.2-2.9c-7.4,2.5-14.7,5-22.3,7c0.7,0.9,1.4,1.8,2.1,2.8c0,0.1,2.2-1.8,2.9-2.4c2-1.7,4-3.4,6-5
				c3.7-3.1,6.7-6.1,9.7-9.9c5.6-7.2,11.4-11.6,20-14.8c8.2-3,16.8-4.6,25.3-6.2C946.3,422.8,946.1,421.1,945.1,421.2L945.1,421.2z"
				/>
		</g>
	</g>
	<g>
		<g>
			<path class="st0" d="M851.2,565c-11.8,14.2-16.2,31.9-18.7,49.8c-2.8,20.7-3.7,41.8-5.2,62.7c-0.1,1.9,2.8,3.3,4,1.7
				c3.4-4.4,6.8-8.7,10.1-13.1c-1.2-0.5-2.4-1-3.6-1.5c0.1,12.9-0.5,27.1-8,38.1c-7,10.4-20.7,15.5-31.4,7.4c-0.9,1.5-1.7,3-2.6,4.5
				c4.8,3.5,9.9,6.2,15.4,8.4c-0.3-1.3-0.7-2.6-1-3.9c-3.5,3.5-7.5,5.6-12.3,6.4c-2.2,0.4-1.4,3.4,0.5,3.6
				c9.1,1.2,18.2,2.5,27.2,3.8c-0.1-1.1-0.3-2.1-0.4-3.2c-4.2,2.2-8.4,2.8-13.1,2.3c-2.3-0.2-2.6,3.2-0.5,3.8
				c7.3,2.2,14.7,3.1,22.3,2.8c-0.4-1.1-0.9-2.1-1.3-3.2c-3.6,3.2-8,3.9-12.5,2.2c-0.3,1.2-0.6,2.3-1,3.5c26.4,9,56.2,18.9,83.7,8.7
				c2.2-0.8,1.3-4.3-1-3.5c-27.4,9.3-55.6,0.4-81.8-8.7c-2.2-0.8-3.1,2.7-1,3.5c5.7,2.2,11.5,0.9,16.1-3.1c1.2-1.1,0.2-3.2-1.3-3.2
				c-7.3,0.3-14.3-0.6-21.3-2.8c-0.2,1.3-0.3,2.6-0.5,3.8c5.3,0.4,10.1-0.8,14.8-3.2c1.2-0.6,1.1-2.9-0.4-3.2
				c-9.2-1.4-18.5-2.6-27.7-4.1c-0.2,1.2-0.3,2.4-0.5,3.6c5.8-0.7,10.8-2.8,15.1-6.8c1-0.9,0.9-3-0.5-3.6
				c-5.2-2.3-10.1-5.2-14.6-8.7c-2.3-1.8-5.4,2.2-3.1,4c10.7,9.1,26.3,5.7,35.2-4.3c11.1-12.6,11.2-29.5,11.6-45.3
				c0-1.7-2.4-2.9-3.6-1.5c-3.5,4.2-7,8.5-10.5,12.7c1.3,0.6,2.7,1.1,4,1.7c1.8-19.8,3.2-39.7,5.7-59.5c2.2-17.9,6.6-35.6,15.7-51.4
				C854.1,565.4,852.3,563.8,851.2,565L851.2,565z"/>
		</g>
	</g>
	<g>
		<g>
			<path class="st0" d="M1010.3,395.5c-29.5-3.1-60.7,7.4-86.1,21.7c-1.8,1-0.9,3.6,1,3.7c7.3,0.6,14.6,1.2,22,1.8
				c2.5,0.2,2.5-3.6,0-3.9c-7.3-0.7-14.6-1.3-22-2c0.3,1.2,0.7,2.5,1,3.7c13.1-7.3,27-12.9,41.5-16.9c14-3.8,28.4-5.4,42.7-7.5
				C1010.9,396.3,1010.7,395.6,1010.3,395.5L1010.3,395.5z"/>
		</g>
	</g>
	<g>
		<g>
			<path class="st0" d="M1009.7,394.7c-3.5-9.1-13.4-13.3-22.8-13.1c0,1.7,0,3.5,0,5.2c14.8-1.5,29.8-3.2,44.7-1.4
				c6.4,0.8,12.7,2.2,18.7,4.5c3.4,1.3,6.7,2.9,9.8,4.7c2.4,1.4,3.9,3,6.8,3.2c1,0.1,2-1.1,1.6-2.1c-1.8-5-9.1-7.6-13.7-9.6
				c-6.4-2.7-13.1-4.5-20-5.5c-15.9-2.3-32-0.8-47.9,1c-3.3,0.4-3.4,5.5,0,5.2c8.5-0.7,15.2,3.2,21.5,8.6
				C1009,395.9,1010,395.5,1009.7,394.7L1009.7,394.7z"/>
		</g>
	</g>
	<g>
		<g>
			<path class="st0" d="M1071.4,396.6c-3.3-4.1-6.7-8.2-10.3-12.1c-0.6,1.1-1.2,2.1-1.9,3.2c13.6,5.1,27.4,9.9,39.9,17.5
				c5.4,3.3,10.6,7,15.2,11.4c2.4,2.2,4.6,4.6,6.7,7.1c1.9,2.3,3.1,4.9,5.7,6.3c1.2,0.6,2.9-0.1,2.8-1.6
				c-0.4-5.5-6.4-10.9-10.2-14.5c-4.9-4.7-10.4-8.7-16.2-12.2c-13.3-7.9-28.1-13-42.8-17.7c-1.8-0.6-3.2,1.9-1.9,3.2
				c3.8,3.7,7.8,7.2,11.8,10.6C1071,398.6,1072.1,397.5,1071.4,396.6L1071.4,396.6z"/>
		</g>
	</g>
	<g>
		<g>
			<path class="st0" d="M1127.2,434.3c7.5-9,4.6-27.1-2.2-35.7c-0.8,1-1.6,2.1-2.4,3.1c10.7,8.2,16.3,21.4,16,34.8
				c0,1.2,1.4,2,2.4,1.4c12.8-7.6,30.7-0.3,37,12.4c0.8-1.1,1.7-2.2,2.5-3.2c-12.4-4.4-26.4-2.9-38.2,2.7c-1.6,0.8-1.5,3.4,0,4.2
				c2.1,1.1,3.8,0.8,5.9-0.2c0.7-0.4,2.4-2,3.1-2c0.9,0,2.1,2.4,2.7,3.5c4,6.9,6.2,14.9,8.2,22.6c3.2,12.7,6.4,25.2,5.7,38.3
				c1.4,0,2.8,0,4.2,0c-0.5-5.6-3.3-10-8.4-12.4c-2.3-1.1-4.3,2.2-2,3.4c3.7,1.8,5.9,4.9,6.2,9c0.2,2.7,4,2.7,4.2,0
				c1-14.3-2.4-28.5-6.1-42.3c-2-7.7-4.4-15.8-8.7-22.6c-1.2-1.9-2.7-4.4-5.2-4.5c-2-0.1-6,3.7-7.3,3c0,1.4,0,2.8,0,4.2
				c10.6-5.2,23.3-6.4,34.6-2.6c1.9,0.7,3.3-1.6,2.5-3.2c-8.1-15.8-27.2-20.2-42.5-13c0.8,0.5,1.6,0.9,2.4,1.4
				c1.8-15-5.2-29.2-17.2-38.2c-1.9-1.4-3.7,1.5-2.4,3.1c7.2,8.9,6.4,22,4.4,32.5C1126.5,434.3,1127,434.6,1127.2,434.3
				L1127.2,434.3z"/>
		</g>
	</g>
	<g>
		<g>
			<path class="st0" d="M989.4,465.5c-32.7-9.6-57,23.1-76.2,43.9c-11.3,12.3-23.7,24.2-33.5,37.8c-8.9,12.4-14.6,27-12,42.4
				c0.4,2.5,3.6,2.3,4.8,0.6c11.9-16.3,25.5-34,46-39.3c-0.9-1.6-1.8-3.1-2.7-4.7c-17.2,19.2-24.3,45.7-19.1,71
				c0.7,3.3,5.2,2.2,5.5-0.7c1.3-15.9,9-30.4,21.2-40.7c-1.5-0.9-3.1-1.8-4.6-2.7c-0.3,1.4-0.6,2.8-0.9,4.2
				c-0.4,1.9,1.3,4.2,3.4,3.4c11.6-4.3,23.3-8.7,33.8-15.3c-1.3-1.3-2.5-2.5-3.8-3.8c-7,10-17,17.2-27,23.8c-2.3,1.5-1.4,5,1.4,5.1
				c39,1.2,77.7-8.3,111.7-27.3c-1.1-1.4-2.2-2.8-3.2-4.2c-3,3.6-6,7.1-8.9,10.7c-1.5,1.8-0.5,4.4,1.9,4.5
				c17.6,1.2,34.9-1.9,51.1-8.7c-1.1-1.4-2.1-2.8-3.2-4.1c-4.9,5.9-9.7,11.7-14.6,17.6c-1.3,1.6-0.6,4.7,1.9,4.5
				c29-2,58.9-20,74.5-44.4c-1.6-0.7-3.2-1.3-4.7-2c-3.3,17.1-5.9,34.5-3.5,51.9c0.3,2.1,3,2.2,4.3,1.1c6.5-5.1,12.9-10.2,19.4-15.3
				c2.6-2-1.1-5.6-3.6-3.6c-6.5,5.1-12.9,10.2-19.4,15.3c1.4,0.4,2.9,0.8,4.3,1.1c-2.3-16.4,0.3-33,3.5-49.1c0.6-2.9-3.1-4.5-4.7-2
				c-14.6,22.8-43,40-70,41.8c0.6,1.5,1.2,3,1.9,4.5c4.9-5.9,9.7-11.7,14.6-17.6c2-2.4-0.4-5.3-3.2-4.1c-15.3,6.5-31.8,9.1-48.4,8
				c0.6,1.5,1.3,3,1.9,4.5c3-3.6,6-7.1,8.9-10.7c1.9-2.2-0.5-5.7-3.2-4.2c-33.3,18.6-71,27.7-109.1,26.5c0.5,1.7,0.9,3.4,1.4,5.1
				c10.9-7.1,21.5-15,29-25.7c1.6-2.3-1.5-5.2-3.8-3.8c-10.1,6.4-21.3,10.6-32.5,14.8c1.1,1.1,2.3,2.3,3.4,3.4
				c0.3-1.4,0.6-2.8,0.9-4.2c0.6-2.8-2.5-4.5-4.6-2.7c-13.3,11.3-21.4,27.3-22.9,44.6c1.8-0.2,3.6-0.5,5.5-0.7
				c-4.8-23.2,1.8-47.9,17.7-65.5c1.8-2.1,0.1-5.4-2.7-4.7c-22.1,5.7-36.3,24.4-49.1,42c1.6,0.2,3.2,0.4,4.8,0.6
				c-2.6-15.2,4.6-29.7,13.7-41.4c9.3-11.9,20.2-22.7,30.4-33.8c18-19.6,40.9-51.1,71.6-44.5C990.6,469.1,991.4,466.1,989.4,465.5
				L989.4,465.5z"/>
		</g>
	</g>
	<g>
		<g>
			<path class="st0" d="M1012.4,525.3c-10.1-11.6-26.5,8.1-33.7,14.2c-6.5,5.4-13,10.7-19.5,16.1c-6,5-12.3,9.7-16.4,16.4
				c-0.6,1,0.6,2.1,1.6,1.6c5.9-2.9,10.4-7.2,15.5-11.5c5.4-4.6,10.7-9.2,16-13.8c5-4.4,10.1-8.8,15-13.3c6-5.5,12.4-12.1,21.2-8.8
				C1012.5,526.3,1012.7,525.7,1012.4,525.3L1012.4,525.3z"/>
		</g>
	</g>
	<g>
		<g>
			<path class="st0" d="M1083.6,533.4c-8.5-9.1-21.7,0.8-29.3,6.4c-5,3.7-9.9,7.8-14.2,12.3c-4,4.1-8.3,8.4-10.1,14
				c-0.3,1,0.9,1.9,1.7,1.3c3.8-2.5,6.5-6.1,9.7-9.4c3.4-3.6,7-7,10.8-10.2c7.3-6.2,19.8-17.9,30.1-12.8
				C1083.4,535.5,1084.4,534.3,1083.6,533.4L1083.6,533.4z"/>
		</g>
	</g>
	<g>
		<g>
			<path class="st0" d="M1148.7,576.5c-3.2,17.6-4.2,35.7-5.7,53.6c-1.5,18-2.8,36.1-4.3,54.1c-1.4,17.2-3.6,34.4-12,49.7
				c-7.1,12.8-17.3,23.5-28.3,33c-11.6,10-24.3,19.1-37.1,27.6c-13.9,9.2-29.2,16.9-46.3,15.3c-16.3-1.6-31.3-10.6-44.7-19.6
				c-14.7-9.9-29-20.4-43.4-30.7c-14.4-10.2-32.8-20-38.3-37.9c-5.1-16.6-1.3-34.5-6.3-51.2c-0.9-3-5.5-1.7-4.7,1.3
				c4.5,16.1,1,33,4.8,49.1c3.7,15.7,15.6,25.2,28.2,34c15.7,11,31.4,22,47,33c13.8,9.7,28.1,19.6,44.5,24.2
				c15.4,4.3,30.7,2.6,45.1-4.4c14.5-7.1,27.5-17.5,40.2-27.4c12.4-9.6,24.4-19.7,34-32.2c9.6-12.4,15.5-26.4,18.2-41.8
				c3.6-20.5,4.5-41.7,6.3-62.4c2-22.2,4.9-44.8,4.6-67.2C1150.5,575.7,1148.9,575.4,1148.7,576.5L1148.7,576.5z"/>
		</g>
	</g>
	<g>
		<g>
			<path class="st0" d="M887.1,666.8c-19.8-1.4-30.2-19.8-26.5-38.3c1.6-8.1,6.5-21.1,16.8-14.2c7.6,5.1,13.4,13.2,16.8,21.6
				c1,2.3,4.6,2.2,4.6-0.6c0.1-5.6,1.4-11.4,0.6-17c-0.2-1.3-2.2-1.4-2.7-0.4c-2.6,5.2-2.5,11.6-2.6,17.3c1.5-0.2,3.1-0.4,4.6-0.6
				c-4.1-10.1-11.5-21.2-21.6-26.1c-10.7-5.2-17.7,5.7-20.4,14.5c-3.5,11.4-2.9,24.8,4.2,34.7c6.1,8.6,16.1,14.3,26.7,12.8
				C889.9,670.3,889.1,667,887.1,666.8L887.1,666.8z"/>
		</g>
	</g>
	<g>
		<g>
			<path class="st0" d="M870.9,627c5.7,1.5,9,6.4,11.6,11.4c1.5,2.8,3.5,7.6,0.7,10.3c-3.7,3.6-9.3-1.4-10.6-4.9
				c-0.3-0.7-1.4-0.6-1.4,0.2c-0.2,5.1,1.9,9.7,7.6,10.2c4.6,0.4,8.6-2.6,9.5-7.1c1.2-5.5-2.5-11-5.6-15.2c-2.9-4-6.7-7.7-11.9-6.6
				C870.1,625.7,870.1,626.8,870.9,627L870.9,627z"/>
		</g>
	</g>
	<g>
		<g>
			<path class="st0" d="M874.8,641.4c1.7,1.7,3.4,3.4,4.8,5.2c1.4,1.8,2.5,4.1,4.3,5.5c0.3,0.2,0.9,0.1,0.9-0.4
				c-0.1-2.4-1.8-4.4-3.2-6.1c-1.8-2.1-3.7-3.8-6.1-5.1C874.9,640.2,874.3,640.9,874.8,641.4L874.8,641.4z"/>
		</g>
	</g>
	<g>
		<g>
			<path class="st0" d="M1166.1,509.8c-2.5,17.1-3.1,34.5-4.5,51.7c-1.4,17.8-3,35.5-4.6,53.3c-1.5,17.4-2.7,34.9-4.6,52.2
				c-1,8.9-1.9,17.7-3,26.6c-1,8.5-2.2,17.1-1.6,25.7c0.4,6.1,1.4,13.1,6,17.6c4.1,4,10.1,5.3,15.4,6.7c0-1.3,0-2.6,0-3.9
				c-5.1,0.9-6.8,7.4-11.6,8.2c-2.3,0.4-1.7,4,0.5,4c5.1,0,10.3-0.1,15.4-0.2c-0.2-1.3-0.3-2.5-0.5-3.8c-3.4,0.8-6.8,4.9-9.3,7.1
				c-5.5,4.8-11.7,7.6-18.8,9.3c-11.1,2.7-27.3,3.8-36.9-3.5c-2.3-1.7-5.4,2.3-3.1,4c10,7.8,24.9,7.3,36.8,5.2
				c7.2-1.3,15.3-3.9,21.1-8.4c2-1.6,3.8-3.5,5.6-5.3c1.5-1.5,3.5-4.3,5.7-4.7c2.2-0.4,1.6-3.8-0.5-3.8c-5.1,0-10.3,0-15.4,0
				c0.2,1.3,0.4,2.7,0.5,4c5.1-0.9,6.8-7.4,11.6-8.2c2-0.3,1.8-3.4,0-3.9c-7.1-1.8-14.2-3.4-16.8-11.2c-3.2-9.7-1.6-21-0.6-30.9
				c2.2-20.7,4.6-41.3,6.6-62c2.1-20.7,3.9-41.4,5.5-62.1c1.7-20.9,4.1-42.2,3.9-63.2C1169,508.6,1166.4,508.1,1166.1,509.8
				L1166.1,509.8z"/>
		</g>
	</g>
	<g>
		<g>
			<path class="st0" d="M1021.4,615.7c-5.6-8.5-19.8-11.2-29.2-11.4c-5.6-0.1-11.4,0.7-16.7,2.4c-4.5,1.4-10.9,3.4-13.3,7.7
				c-0.5,0.9,0.1,2.5,1.3,2.3c4.4-0.6,8.3-3.8,12.5-5.2c5-1.7,10.2-2.5,15.4-2.5c5,0,10,0.7,14.7,2.2c4.9,1.5,9.3,4.5,14.1,5.8
				C1021,617.3,1021.8,616.4,1021.4,615.7L1021.4,615.7z"/>
		</g>
	</g>
	<g>
		<g>
			<path class="st0" d="M1130,621.1c-5.6-8.5-19.8-11.2-29.2-11.4c-5.6-0.1-11.4,0.7-16.7,2.4c-4.5,1.4-10.9,3.4-13.3,7.7
				c-0.5,0.9,0.1,2.5,1.3,2.3c4.4-0.6,8.3-3.8,12.5-5.2c5-1.7,10.2-2.5,15.4-2.5c5,0,10,0.7,14.7,2.2c4.9,1.5,9.3,4.5,14.1,5.8
				C1129.7,622.7,1130.4,621.8,1130,621.1L1130,621.1z"/>
		</g>
	</g>
	<g>
		<g>
			<path class="st0" d="M970.2,634.6c7.9-0.5,16-0.9,24-0.3c4.1,0.3,8.2,0.8,12.2,1.7c3.3,0.7,6.7,2.3,10,1.1c1-0.3,1.2-1.4,0.6-2.2
				c-2.3-2.8-5.9-3-9.3-3.6c-4.2-0.7-8.4-1.2-12.6-1.4c-8.7-0.4-16.9,0.3-25.1,3C969,633.1,969.1,634.7,970.2,634.6L970.2,634.6z"/>
		</g>
	</g>
	<g>
		<path class="st0" d="M992.6,633.1c-3.5,2.8-5.7,7.1-6.4,11.5c-0.7,4.4-0.2,9,1,13.3c0.8,3,2.3,6.3,5.3,7.1c2.5,0.6,5-0.8,7-2.5
			c4.6-4.1,7.5-10.1,7.8-16.3c0.2-3.8,0.1-9.9-3.1-11.9"/>
		<g>
			<path class="st0" d="M992.6,632.4c-7.7-0.2-9.5,12.5-9.2,18c0.3,6.2,2.5,17.4,10.8,16.8c8.1-0.6,13.6-10.2,14.9-17.3
				c0.8-4.5,1.1-15.4-4.7-17c-1.2-0.3-2.1,1-1.6,2.1c2.3,4.4,2.6,8.7,1.7,13.6c-0.8,4.5-4.9,14-10.5,13.8c-3.5-0.1-4.3-3.7-4.9-6.8
				c-0.6-3-1-6.2-0.7-9.4c0.5-5,4.2-8.4,4.8-13.1C993.4,632.8,993,632.4,992.6,632.4L992.6,632.4z"/>
		</g>
	</g>
	<g>
		<g>
			<path class="st0" d="M1071.9,641.9c7.9-0.1,16-0.4,23.9,0.2c4.1,0.3,8.2,0.9,12.2,1.6c3.3,0.6,6.7,2.2,10,0.9
				c1-0.4,1.3-1.4,0.6-2.2c-2.3-2.7-5.9-2.8-9.3-3.4c-4.2-0.7-8.4-1.2-12.6-1.4c-8.6-0.5-16.8,0.1-25.1,2.4
				C1070.7,640.4,1070.8,642,1071.9,641.9L1071.9,641.9z"/>
		</g>
	</g>
	<g>
		<g>
			<path class="st0" d="M967,660.4c7.7,4.4,15.9,6.9,24.7,8.2c4,0.6,8.1,1,12.1,1.1c3.6,0.1,7,0.5,9.8-1.8c0.7-0.5,0.4-1.7-0.3-2.1
				c-2.9-1.8-6.3-1-9.6-1c-4.1,0-8.1-0.3-12.1-0.8c-8.1-1.1-16.2-3.2-24-5.3C966.7,658.5,966.1,659.9,967,660.4L967,660.4z"/>
		</g>
	</g>
	<g>
		<g>
			<path class="st0" d="M1072,668.1c7.7,3.2,15.6,4.6,24,5.2c4.1,0.3,8.2,0.4,12.3,0.3c3.3-0.1,6.7,0.2,9.3-2.1
				c0.6-0.6,0.4-1.7-0.3-2.1c-2.8-1.6-5.9-0.8-9-0.6c-4.1,0.2-8.2,0.2-12.3,0c-7.9-0.4-15.9-1.4-23.7-2.5
				C1071.2,666.2,1071.2,667.7,1072,668.1L1072,668.1z"/>
		</g>
	</g>
	<g>
		<path class="st0" d="M1094.3,640.9c-3.5,2.3-5.5,6-6.2,9.8s0,7.8,1.2,11.5c0.8,2.6,2.4,5.5,5.4,6.2c2.5,0.6,5-0.6,6.9-2
			c4.6-3.5,7.4-8.6,7.5-14c0.1-3.3,0-8.5-3.3-10.3"/>
		<g>
			<path class="st0" d="M1094.3,640.2c-7.5-0.9-9.4,11.1-8.9,16.3c0.6,6.3,3.6,14.9,11.4,14.1c7.2-0.7,12.8-8,14.2-14.7
				c0.9-4.4,0.7-14-4.9-15.2c-1.2-0.3-2.3,1-1.6,2.1c1.9,3.2,2.6,5.9,2.2,9.6c-0.4,4.5-3.6,12.1-8.7,13.3c-6.5,1.6-8-7.8-7.7-12.6
				c0.2-2.9,1-5.3,2.5-7.7c0.9-1.5,1.8-2.6,2.1-4.4C1095.1,640.6,1094.8,640.2,1094.3,640.2L1094.3,640.2z"/>
		</g>
	</g>
	<g>
		<g>
			<path class="st0" d="M1040.8,702.1c1.3,1.8,2.4,3.7,3.4,5.8c0.5,1.1,1,2.3,1.4,3.4c0.6,1.7,1,2.2,0.1,4c-0.9,1.7-1.3,1.5-3.1,1.6
				c-1.1,0-2.2,0-3.3-0.1c-1.9-0.1-3.7-0.4-5.5-0.1c-0.4,0.1-0.5,0.6-0.2,0.9c3,2.7,11.7,3.4,14.2-0.5c1.4-2.1,0.1-4.8-0.7-6.8
				c-1.3-3.2-3.2-6.1-5.3-8.8C1041.3,700.9,1040.5,701.6,1040.8,702.1L1040.8,702.1z"/>
		</g>
	</g>
	<g>
		<g>
			<path class="st0" d="M1001.4,750.8c10.3,4,22.7,3.2,33.4,1.5c5.7-0.9,11.3-2.4,16.7-4.4c4.7-1.8,9.6-3.4,12.7-7.5
				c0.4-0.5-0.1-1.3-0.7-1.2c-4.7,0.3-8.8,2.8-13.2,4.4c-5.1,1.9-10.5,3.4-15.8,4.4c-11.1,2.2-21.8,1.3-33,1.7
				C1000.9,749.8,1000.9,750.6,1001.4,750.8L1001.4,750.8z"/>
		</g>
	</g>
	<g>
		<g>
			<path class="st0" d="M935.9,772.6c-0.8,8.8-0.8,17.6-2.2,26.4c-0.7,4.2-1.6,8.3-2.7,12.4c-0.9,3.4-2,6.5-1.4,10.1
				c0.3,1.6,2.4,1.9,3.4,0.9c5.5-5.2,5.8-16.4,6.5-23.5c0.8-8.5,0.6-18.2-2-26.5C937.2,771.5,936,771.7,935.9,772.6L935.9,772.6z"/>
		</g>
	</g>
	<g>
		<g>
			<path class="st0" d="M934.1,796.9c-4.2-0.5-8.6,2.4-12.4,3.9c-4.5,1.7-9.2,3.2-13.8,4.5c-3.3,1-1.9,6.1,1.4,5.2
				c5.3-1.4,10.5-2.9,15.6-4.9c3.8-1.5,8.4-2.8,10.5-6.5C935.9,798,935.2,797,934.1,796.9L934.1,796.9z"/>
		</g>
	</g>
	<g>
		<g>
			<path class="st0" d="M1080.3,808.1c2.2,3.9,7.2,5.4,11.2,7c5.3,2.1,10.8,3.8,16.4,5.3c3.4,0.9,4.8-4.2,1.4-5.2
				c-4.9-1.4-9.8-3-14.6-4.9c-4-1.6-8.7-4.8-13.1-4.3C1080.5,806.1,1079.8,807.1,1080.3,808.1L1080.3,808.1z"/>
		</g>
	</g>
	<g>
		<g>
			<path class="st0" d="M1082.5,784.1c-3,6.9-3.4,14.8-3.6,22.2c-0.2,7-1.1,16.3,2.8,22.5c0.5,0.8,1.7,0.6,2-0.3
				c2-6.5-0.1-14.5-0.1-21.2c-0.1-7.6,1-15.3,0.2-22.8C1083.8,783.8,1082.8,783.3,1082.5,784.1L1082.5,784.1z"/>
		</g>
	</g>
	<g>
		<g>
			<path class="st0" d="M900.4,750.3c-20.6,12.3-56.9,50-27.1,71.1c6.1,4.3,13.1,7.1,19.2,11.4c6.8,4.8,12.5,11,18.2,17.1
				c11.2,12.3,22.4,24.1,36.7,32.8c28.4,17.4,63.2,22.8,95.5,14.4c16.7-4.3,32-12.1,45.6-22.6c7-5.3,13.6-11.1,20.3-16.9
				c7-6,14.3-11.3,21.6-16.8c13.5-10.2,20.1-25.3,15.7-42.1c-4.2-16-18.1-29.1-33.7-34c-2.5-0.8-4.2,3.1-1.8,4.3
				c13,6.5,25.4,15.1,29.8,29.7c2,6.8,2.2,14.2-0.1,21c-2.6,7.7-8.3,13.1-14.7,17.7c-25,18.1-47.1,41.6-77.1,51.3
				c-29.2,9.4-61.2,7.4-88.7-6.3c-13.2-6.6-24.7-15.5-34.9-26.1c-9.6-10.1-18.6-20.8-30.2-28.8c-12.7-8.7-32.8-14.1-25.8-34
				c5.7-16.2,20.1-30.2,33.6-40.2C904.2,752.1,902.5,749.1,900.4,750.3L900.4,750.3z"/>
		</g>
	</g>
	<g>
		<g>
			<path class="st0" d="M906.8,807.7c1.5,7.3,6.4,13.9,10.9,19.7c4.7,6.1,9.8,11.9,15.6,16.9c12,10.3,25.8,18.3,40.6,23.6
				c30.3,10.8,64.2,7.6,92.7-6.8c7.9-4,15.4-9.1,22.2-14.8c6.7-5.6,14.3-12.2,18.2-20.1c0.7-1.4-0.9-2.5-2.1-1.6
				c-5.8,4.6-10.5,10.4-16.3,15.1c-6,4.8-12.4,9-19.2,12.6c-13.7,7.2-28.6,12.1-44,13.9c-29.7,3.5-59.8-5.4-83.6-23.3
				c-6.5-4.9-12.7-10.4-18.2-16.5c-5.6-6.2-9.7-13.7-15.6-19.6C907.5,806.4,906.6,807,906.8,807.7L906.8,807.7z"/>
		</g>
	</g>
</g>
<g>
	<path class="st0" d="M331.9,645l1-0.7c0.7-0.5,1.4-1,2-1.5l0.3-0.2l0.4-0.1c1.4-0.4,2.8-0.9,4.3-1.2l0.2,0l0.2,0
		c1.5,0.1,2.8,0.3,4.1,0.6l0.4,0.1c0.3,0.1,0.5,0.2,0.8,0.3l0.3,0.1c1.6,1,3.2,2.2,5.1,3.8l0.2,0.2c6.4,6.7,9.1,18.6,8.9,26.7
		c-0.2,8.7-2.9,14.9-7.9,18c-1.9,1.2-3.9,1.8-5.8,1.9c-5.1,0.2-9.8-3.1-12.9-7.4c-7.3-10.4-10.3-27.8-1.7-39.8L331.9,645z"/>
	<path class="st0" d="M198.9,657.5l1.1-0.7c0.7-0.5,1.4-0.9,2-1.4l0.3-0.2l0.4-0.1c1.4-0.4,2.8-0.8,4.3-1.1l0.2,0l0.2,0
		c1.5,0,2.8,0.2,4.1,0.6l0.4,0.1c0.3,0.1,0.5,0.2,0.8,0.3l0.3,0.1c1.6,1,3.2,2.1,5.1,3.5l0.2,0.2c6.4,6.3,9.1,17.4,8.9,25.1
		c-0.2,8.2-3,14.1-8,17c-1.9,1.1-3.9,1.7-5.8,1.7c-5.1,0.2-9.8-2.9-12.8-6.9c-7.4-9.8-10.3-26-1.7-37.4L198.9,657.5z"/>
	<path class="st0" d="M311.1,627.2c-0.7-0.2-1.3-0.9-1.4-1.7c-0.1-0.8,0.1-1.5,0.7-2c1.8-1.4,4.1-1.9,6.1-2.2l0.8-0.2
		c3.3-0.7,6-1.1,8.4-1.5c6.3-0.9,11.5-1.5,16.5-1.9c5.4-0.4,10.8-0.7,15.9-0.9l1.8-0.1c5-0.2,10.2-0.4,15,1.3c1,0.4,1.6,1.2,1.6,2.3
		c0,1.1-0.7,2-1.8,2.3l0,0c-4,1.2-8.4,1.2-12.5,1.2c-1.1,0-2.3,0-3.4,0c-5.6,0.1-11.1,0.4-16.3,0.8c-5,0.4-10.3,0.8-15.6,1.4
		l-3.8,0.4c-1.4,0.2-2.8,0.3-4.2,0.5c-0.4,0.1-0.9,0.1-1.3,0.2c-1,0.1-2,0.3-3.1,0.3C313.3,627.7,312.2,627.6,311.1,627.2z"/>
	<path class="st0" d="M176.7,631.2c4.8-2.7,10.2-3.8,16.2-4.8c4.9-0.9,10.3-1.5,16.4-1.9c5.6-0.4,11.2-0.4,16.8-0.2
		c3.5,0.1,6.1,0.3,8.6,0.6c0.3,0,0.7,0.1,1,0.1c2,0.2,4.6,0.4,6.1,2.2c0.3,0.4,0.5,0.9,0.4,1.4c-0.1,0.5-0.3,0.9-0.6,1.2
		c-1.7,1.4-3.9,1.2-5.8,1.1c-0.4,0-0.7-0.1-1.1-0.1l-0.9,0c-2.4-0.1-4.8-0.2-7.2-0.2c-5.6-0.1-11.2,0-16.8,0.4
		c-4.9,0.3-10.2,0.9-16.2,1.8c-1.3,0.2-2.7,0.4-4,0.6c-3.3,0.6-6.8,1.1-10.2,1.3c-0.6,0-1.3,0-1.9,0c-0.8,0-1.6-0.6-1.8-1.4
		C175.5,632.6,175.9,631.7,176.7,631.2z"/>
	<path class="st0" d="M110,613.3c4.8,21,9.7,42.7,10,64.3c0,0.9,0,1.9,0,2.9c0,5.5,0.1,11.2,1.7,16.6c1.9,6.4,5.9,11.6,9.7,16.7
		c2.2,3,4.5,6,6.4,9.3c7.4,13,7.8,29,8.1,44.5l0.1,3.4c0.4,17.6,2.4,35.6,13.5,48.2c9.4,10.6,22.9,14.7,37.1,18.2
		c29.1,7.3,53.4,11.9,76.3,14.6c18.9,2.2,36.5,3,53.2,2.4c10.9-0.4,21.4-1.4,31.5-3.1c29.2-4.7,55.8-14.6,78.9-29.4
		c11.5-7.3,22.4-14.8,29.4-26c12.3-19.6,12.9-42.9,12-67.3c6.1,1.5,12.7,0.7,18.9-2.5c7.4-3.8,13.4-11.2,16.8-20.7
		c1.3-3.5,2.2-7.3,2.8-11.2c4.5-14,7.8-28.6,10-43.3c4.5-30.4,4.4-61.4-0.4-92.1c-2.6-16.5-5.9-30.6-10-43.1
		c-4.4-13.3-10-22.5-17.3-28.9c3.4-4.2,6.4-8.6,8.8-13.2c3.6-6.8,3.2-12.6-1-16.4c-3.9-3.5-9.8-4.4-14.6-2.1
		c-3.6,1.7-6.3,4.4-8.4,7.3c-4.4-8.7-9.2-17.3-14.4-25.5c-0.9-1.5-2.8-2.2-4.3-1.5c-2.2,0.9-3.8,2.3-4.8,4.3
		c-1.6,3.1-1.6,6.8-1.7,10c0,0.9,0,1.7-0.1,2.6c-0.1,1.5-0.2,3.4-0.8,4.6c-0.7,1.2-2,1.1-4.8,0.4l-0.4-0.1
		c-13.4-3.3-27.1-8.3-40.8-15c-1.5-0.7-2.9-1.5-4.4-2.2c-11-5.5-22.4-11.2-34.8-13.3c-10.9-1.9-22.4-1.3-35.3,1.6
		c-14.2,3.2-27.9,8.8-41.2,14.2c-9.3,3.8-19,7.7-28.7,10.8c-13.5,4.2-24.8,6.1-35.5,5.8c-14.7-0.4-28.7-5.2-41.9-10l-2.7-1
		c-11.2-4.2-25-9.3-36.3-0.9c-4.8,3.6-7.6,9-7.5,14.9c0,2.2,0.5,4.4,1.3,6.4c-1.5,0-2.9-0.1-4.4-0.1c-4.1-0.1-8.3-0.4-12.4-0.7
		c-2.2-0.2-4.4-0.4-6.6-0.6c-0.4,0-0.9-0.1-1.4-0.2c-1.5-0.3-3.2-0.6-4.7-0.1c-3.7,1.2-4.3,6.2-3.5,9.4c0.7,2.9,2.3,4.9,3.9,6.9
		c0.5,0.6,0.9,1.1,1.4,1.7c1.2,1.6,1.5,2.6,1.1,3.4c-0.4,0.9-1.4,1.7-2.3,2.4c-2.2,1.7-4.6,3.7-6.6,6.2c-3.7,4.8-6.1,10.9-6.8,17.2
		c-0.5,4.4-0.2,8.8,0.9,12.8l-0.8-0.1c-0.4,2.7-0.8,5.6-1.1,8.4l0,0C98.2,561.3,104.2,587.7,110,613.3z M125.2,669.1L125.2,669.1
		c0.2-3.5,0.9-6.8,1.7-10.2c1,1.4,1.9,2.7,3,4c2.1,2.6,4.4,5.2,7.1,7.2c1.4,13.7,2.5,27.6,3.4,40.9c-6.4-7.2-10.3-13.9-12.7-21.2
		C125.6,683.2,124.8,676.1,125.2,669.1z M515.4,670.8c-0.9-4.2-2.2-8.2-3.9-12c-3.2-7.2-7.6-13.4-12.9-17.8
		c-3-2.6-12.2-10.3-20.1-4.8c-2.6,1.8-4.3,4.4-5.9,6.9c-1.6,2.5-3.2,4.9-5.4,6.2c-2.7,1.6-6.2,0.3-8.5-1.7c-3-2.7-4.5-7.1-5.6-11
		c-1.9-7.3-3.4-14.7-4.4-20.7c2.2,0,4.3-0.7,6.4-2.1c1.1-0.8,1.5-2.2,1-3.5c-0.6-1.3-1.9-1.9-3.2-1.6c-3.1,0.8-7.2-1.9-9.3-3.3
		c-2.3-1.5-5.3-3.5-8.1-5.6c-5.3-4-10.3-8.4-15-13.1c-4.5-4.6-8.9-9.8-13.1-15.4c-2-2.7-3.8-5.5-5.6-8.2c-0.5-0.8-1-1.6-1.5-2.4
		c-1.3-2.2-2.7-4.5-4.6-6.4c-0.8-0.8-2-1-3.1-0.4c-0.3,0.1-0.5,0.3-0.7,0.6l-3.4,0.5c-7.8,1.1-15.6,2.2-23.4,3.2l-4.5,0.6
		c-10.3,1.4-21,2.9-31.5,4.2c-0.4-0.6-1-1-1.7-1.1c-11.7-1.6-22.3-5.8-30.5-12.2c-4.1-3.2-7.6-6.8-10.5-10.8
		c-0.1-0.2-0.3-0.4-0.5-0.7c-0.1-0.1-0.1-0.2-0.2-0.3c0.1,0,0.2,0,0.3,0l9.1,0.3c2,0.1,4.1,0.2,6.1,0.3c4.2,0.2,8.5,0.5,12.8,0.3
		c2.7-0.1,6.2-1.4,7.8-3.9c0.7-1.2,1.4-3.1,0.2-5.7c-0.9-2.2-2.8-3.9-4.4-5.5c-0.5-0.5-1.1-1.1-1.5-1.6c-0.7-0.7-1.4-1.5-2.1-2.3
		c-0.8-0.9-1.6-1.8-2.5-2.7l12.8-0.6c6.4-0.3,12.7-0.6,19.1-0.9c3.3-0.2,6.7-0.4,10-0.7c0.5,0,0.9-0.1,1.4-0.1
		c2.2-0.1,4.8-0.2,6.9-2.1l0.6-0.6l0-0.9l0-0.8l-0.7-0.5c-2.6-2-6-1.8-9-1.6c-0.8,0-1.5,0.1-2.2,0.1c-3.9,0-7.8,0.1-11.7,0.2
		c-6.2,0.1-12.2,0.4-18.2,0.6l-5.7,0.2c-0.3,0-0.7,0-1.2,0c-3.3,0-8.8-0.1-11.1,2.9c-0.7,0.9-1.3,2.4-0.7,4.6c0.5,1.7,1.8,3,2.8,4
		c0.3,0.3,0.5,0.5,0.7,0.8l6.9,7.6c0.1,0.2,0.4,0.4,0.8,0.8c0.2,0.2,0.7,0.6,1.1,1c-0.9,0-2.4,0-4.8-0.2c-0.3,0-0.5,0-0.6,0
		l-21.9-0.8c-0.4,0-0.8,0-1.2-0.1c-2.2-0.2-5.2-0.4-7.2,1.8c-4.3,4.7,1,11,3.6,14.1l0.5,0.6c3.6,4.4,8,8.4,12.9,11.8
		c4.5,3.1,9.3,5.5,14.3,7c-13.7,1.4-25.7,2.3-37,2.7c-24.4,0.9-48.6-0.6-71.9-4.4c-2.3-1.5-4.4-3.2-6.3-5.1
		c-4.9-4.6-9.3-10.3-13.2-16.8l-0.2-0.3c-0.2-0.3-0.6-1-0.7-1.4c0.3,0,0.7,0,0.9,0l0.3,0c1.4,0,2.9,0.1,4.4,0.1l1.4,0.1
		c4.5,0.2,9.1,0.6,13.5,1.1c5.3,0.6,10.6,1.4,15.8,2.2c3.4,0.5,6.8,1.1,10.2,1.6c0.8,0.2,1.7,0,2.3-0.5c0.8-0.7,1.1-1.8,0.9-2.8
		c-0.2-1-0.9-1.8-1.9-2.1c-9-2.8-18.6-4.2-27.5-5.2c-4-0.5-8-0.8-11.9-1.1c-0.7,0-1.4-0.1-2.2-0.2c-2.9-0.3-6.1-0.6-8.9,0.5
		c-2.5,1-3.4,2.6-3.8,3.9c-1.3,4.4,2.5,10.1,4.9,13.6l0.6,0.9c2.2,3.4,4.5,6.3,6.9,9c-0.6-0.1-1.3-0.3-1.9-0.4
		c-15.3-3.3-29.1-7.2-42.4-11.8l-1.7-0.6c-10.9-3.8-23.2-8.1-28.6-18.7c-4.5-8.9-2.9-21.3,3.7-28.7c0.9-1,2-1.9,3.2-2.8
		c3.2-2.5,6.7-5.4,6.6-10.5c-0.1-3.6-2.1-6.3-4.2-8.8l-0.2-0.2c-0.6-0.7-2-2.4-2.4-3.7c11.4,1.1,22.9,1.7,34,1.6
		c1.7,0,3-1.2,3.5-2.9c0.4-1.8-0.3-3.5-1.8-4.3c-2.1-1.1-3-3.1-3.4-4.5c-0.7-2.6-0.3-5.6,1-7.8c3.4-5.6,10.6-6.9,16.2-6.2
		c5.7,0.7,11.5,2.9,17,5c1.8,0.7,3.6,1.4,5.3,2c6.1,2.2,14.2,5,22.4,6.8c12.8,2.9,25.7,3.1,38.5,0.8c12.6-2.3,24.7-6.6,33.9-10.2
		c4.6-1.8,9.4-3.7,13.9-5.6c17.1-7,34.7-14.3,53.1-15.9c11.8-1,23.6,0.8,35,5.4c6.1,2.5,12.2,5.5,18.1,8.4c6.4,3.2,13,6.4,19.8,9.1
		c6.4,2.5,13,4.7,19.7,6.6c0.7,0.2,1.4,0.4,2.1,0.6c4.8,1.5,11.3,3.5,15.6-1c3-3.2,3.1-7.9,3.2-11.7c0-0.6,0-1.1,0-1.6
		c0-1,0-2.4,0.2-3.6c5.1,8.5,9.8,17.3,14,26.2c0.6,1.2,1.6,1.9,2.8,2c1.4,0.1,2.9-0.7,3.7-1.9c2.3-3.6,4.8-7.6,8.3-9.4
		c0.9-0.4,1.9-0.7,2.9-0.8c1.6-0.1,3.2,0.4,4.3,1.6c1.9,2.1,0.1,5.5-2.1,9.1l-0.5,0.9c-2.4,4-5.3,7.9-8.6,11.6c-0.7,0.8-1.1,1.9-1,3
		c0.1,1.2,0.8,2.3,1.8,3c10.9,7.5,16,21.2,19.8,34.8c7.9,28.1,11.7,57.4,11.2,87.1C521.7,631.7,519.5,651.3,515.4,670.8z
		 M105.2,533.9c2.7,4.9,6.8,9.2,12.4,12.8c6.1,4,12.9,6.5,19.5,8.9c7.3,2.7,14.8,5.2,23,7.6c13.6,4,27.5,7.2,41.5,9.5
		c3.1,1.3,6,1.6,8.8,1.8c0.5,0.1,1-0.1,1.4-0.3c14.7,2,29.7,3,44.4,3.1c34.3,0.1,68.5-4.5,101.6-9c8.5-1.2,17.1-2.3,25.6-3.5
		c1.4-0.2,2.8-0.4,4.2-0.6c2-0.3,4-0.6,6-0.9c0.5,1,1,2,1.5,2.9l0.4,0.7c1.6,3,3.6,6.1,6.2,10c4.1,6,9,11.9,14.6,17.5
		c5.3,5.3,11.1,10.2,17.2,14.6c2.8,2,5.3,3.7,8.2,5c1.2,8.5,2.6,18.1,5.2,27c2.8,9.5,8.4,15.6,15.5,16.6c7.5,1.1,12.2-4.2,15.8-9.6
		l0.6-0.9c1.2-1.9,2.5-3.8,4.2-4.9c2.2-1.3,4.9,0.2,7.7,2c5.1,3.3,9.6,8.5,12.9,14.9c6.4,12.5,7.7,28.7,3.4,42.3
		c-2.5,7.8-7,13.9-12.8,17.2c-6.1,3.5-13,3.8-18.5,0.8c-0.6-0.3-1.3-0.5-1.9-0.5c-0.6,0-1.2,0.2-1.8,0.6c-1.2,0.7-1.9,2-1.8,3.4
		c0.6,14.7,1.2,29.8-1.7,44.4c-0.9,4.7-2.2,9.1-3.8,13.2c-0.3,0.8-0.7,1.7-1,2.5c-0.4,0.8-0.7,1.7-1.1,2.5
		c-5.7,11.3-16.1,18.9-26.4,25.7c-10.5,6.9-22,12.9-34.2,17.8c-22.8,9.1-48.1,14.5-74.9,15.9c-48.2,2.5-96.5-7.9-133.1-17.2
		c-9.5-2.4-17.9-4.9-24-11c-8.3-8.3-10.4-21.3-12-35l-25.5-219.7l-3.4,0.1c-2.4,28.8-1.2,57.8,3.6,86.2
		C116.1,612.8,106.7,573.5,105.2,533.9z"/>
	<path class="st0" d="M479.9,674.3c3.4-2.7,8.6-5.3,13.6-5.4c-1.2-2-2.7-3.6-4.5-4.7c-2.2-1.3-4.9-1.7-7.4-1.1
		c-2.5,0.6-4.5,2.2-5.8,4.4c-0.5,0.9-1.7,1.3-2.7,0.8c-1-0.4-1.4-1.4-1-2.4c1.7-4.8,6.4-8,12-8.2c0,0,0,0,0,0
		c5.4-0.2,10.7,2.9,14,8.3c7.2,11.6,3.2,25.9-3.6,34.2c-3.6,4.4-9.7,9.1-16.3,9.3c-0.2,0-0.5,0-0.7,0c-0.9,0-1.7-0.6-1.9-1.5
		c-0.2-1,0.3-1.9,1.2-2.3c5.7-2.7,10.3-5.5,14-10.2c3.6-4.6,5.6-10.5,5.5-16c0-2.1-0.3-4.2-0.9-6.2l-0.4,0.1
		c-1.6,0.2-3.1,0.4-4.6,0.9c-2.6,0.9-5,2.1-7.1,3.8c-3.8,2.9-7.1,7.6-9.3,13.2c-0.3,0.7-1.1,1.1-1.9,1c-0.8-0.2-1.3-0.9-1.3-1.7
		C471.2,684.1,474.3,678.7,479.9,674.3z"/>
	<path class="st0" d="M253.5,774.1c3.4-0.1,6.8-0.1,10.2-0.1c7.7,0,15.7-0.1,23.5-0.8c4.6-0.4,9.3-1.4,13.8-2.3
		c6.4-1.2,12.9-2.5,19.5-2.6c0.9,0,1.7,0.6,2,1.5c0.3,0.9-0.1,1.8-0.8,2.3c-10.4,6.7-24.9,9.7-39.5,10.3
		c-10.2,0.4-20.4-0.5-29.2-2.1c-1.5-0.3-2.5-1.6-2.4-3.3C250.7,775.3,252,774.2,253.5,774.1z"/>
</g>
<path class="st0" d="M568.6,826.9c-0.1,0-0.1,0.1,0,0.1S568.7,826.9,568.6,826.9z"/>
<path class="st0" d="M726.7,568.7c-26.3,20.5-50.3,44.5-74.1,67.7c-22.2,21.6-46.9,43.5-62.1,70.8c-1.9,3.5,3.2,6.5,5.3,3.1
	c16.9-26.5,42-48,64.1-70.1c23-23,47.4-45,69.4-68.9C731,569.5,728.5,567.2,726.7,568.7z"/>
</svg>
